<svg xmlns="http://www.w3.org/2000/svg" viewBox="0 0 378.64 84.05"><defs><style>.cls-1{fill:#e2470e;}.cls-2{fill:#009143;}.cls-3{fill:#333;}</style></defs><g id="レイヤー_2" data-name="レイヤー 2"><g id="レイヤー_1-2" data-name="レイヤー 1"><path class="cls-1" d="M44.41,9.87c-1.33,0-.07-.11-1.36,0a12.26,12.26,0,0,0-11.21,9.83c-.49,4.41-5,12-13.53,12.44-4.37.69-8.26,4.71-8.26,9,0,.19,0,.37,0,.55s0,.35,0,.53h0c0,.69-.07,1.38-.07,2.08V83.84H29.63V44.37a14.78,14.78,0,0,1,29.56,0V83.84H78.93V44.38A34.51,34.51,0,0,0,44.41,9.87Z"/><path class="cls-2" d="M11.1,22.2A11.1,11.1,0,1,0,0,11.1,11.1,11.1,0,0,0,11.1,22.2Z"/><polygon class="cls-3" points="124.07 30.61 129.14 30.61 129.14 27.26 124.07 27.26 124.07 23.87 120.71 23.87 120.71 27.26 117.38 27.26 117.38 23.87 113.96 23.87 113.96 32 117.38 32 117.38 30.61 120.71 30.61 120.71 35.15 114.03 35.15 114.03 38.53 119.92 38.53 114.42 43.92 114.42 49.05 120.71 42.56 120.71 50.91 124.07 50.91 124.07 42.51 129.86 49.06 129.86 43.99 124.94 38.53 130.01 38.53 130.01 35.15 124.07 35.15 124.07 30.61"/><polygon class="cls-3" points="106.36 50.91 109.75 50.91 109.75 38.93 112.2 44.15 112.2 36.74 109.74 31.97 112.21 31.97 112.21 28.6 109.75 28.6 109.75 23.88 106.37 23.88 106.37 28.6 102.99 28.6 102.99 31.97 106.44 31.97 102.98 37.57 102.98 43.61 106.36 38.11 106.36 50.91"/><polygon class="cls-3" points="144.03 66 144.03 61.83 140.86 61.83 140.86 56.91 137.48 56.91 137.48 61.83 134.1 61.83 134.1 65.17 139.93 65.17 134.09 70.79 134.09 75.47 137.47 72.23 137.47 83.86 140.85 83.86 140.85 72.84 144.27 76.08 144.27 71.45 141.31 68.65 144.03 66"/><rect class="cls-3" x="107.81" y="65.32" width="17.31" height="3.38"/><polygon class="cls-3" points="154.82 67.01 160.32 67.01 160.32 63.63 154.82 63.63 154.82 56.89 151.44 56.89 151.44 63.63 145.95 63.63 145.95 67.01 151.44 67.01 151.44 80 145.15 80 145.15 83.38 161.11 83.38 161.11 80 154.82 80 154.82 67.01"/><path class="cls-3" d="M103,75.47h5.59l-3.44,4.87h0v3.38h22.78V80.41h0v-.06h0l-3.44-4.87H130V72.09H103Zm20.74,4.87H109.24l3.44-4.87h7.58Z"/><polygon class="cls-3" points="134.55 46.68 134.55 50.07 148.7 48.9 148.7 45.52 142.85 46 142.85 38.55 147.33 38.55 147.33 35.17 134.55 35.17 134.55 38.55 139.47 38.55 139.47 46.27 134.55 46.68"/><polygon class="cls-3" points="155.55 50.8 159.1 50.8 152.5 30.52 159.17 30.52 159.14 23.77 155.81 23.77 155.81 27.15 151.76 27.15 151.76 23.78 148.41 23.78 148.41 27.15 133.42 27.15 133.42 30.52 148.99 30.52 155.55 50.8"/><polygon class="cls-3" points="129.98 64.76 129.98 61.22 116.48 56.88 102.95 61.23 102.95 64.77 116.48 60.43 129.98 64.76"/><rect class="cls-3" x="247.04" y="23.84" width="32.94" height="11.99"/><rect class="cls-3" x="247.04" y="44.84" width="32.94" height="11.99"/><path class="cls-3" d="M295,59.8c0,6.46-16.07,12-37.16,12H247v12h10.84C292.87,83.82,307,72,307,60.56V44.8H295Z"/><rect class="cls-3" x="174.98" y="71.83" width="60.08" height="11.99"/><rect class="cls-3" x="177.97" y="23.76" width="54.1" height="11.99"/><path class="cls-3" d="M367.05,23.85V32.7c-.07,6.46-16.15,12-37.23,12H319v12.1l10.81-.12a123.84,123.84,0,0,0,16.13-1v28.3h12V53.27c14.55-4.34,20.7-12.16,20.7-19.81V23.85Z"/></g></g></svg>