<svg xmlns="http://www.w3.org/2000/svg" viewBox="0 0 180.75 98.88"><defs><style>.cls-1{fill:#b4e7fc;}.cls-1,.cls-2,.cls-3,.cls-4{stroke:#000;stroke-miterlimit:10;}.cls-2{fill:#6cceff;}.cls-3{fill:#e8af64;}.cls-4{fill:#f7f7f7;}</style></defs><g id="レイヤー_2" data-name="レイヤー 2"><g id="レイヤー_1-2" data-name="レイヤー 1"><rect class="cls-1" x="23.94" y="0.5" width="101.31" height="42.82" rx="4.43"/><path class="cls-2" d="M1.51,33.74c2.28-1.28,63.35.8,90.25,0s76.63-10,84.94-15,.29,29.71-6.42,41.67c-5.4,9.65-14.48,32.57-21.93,38H33.24L1.51,48.17S-.77,35,1.51,33.74Z"/><path class="cls-3" d="M14.19,68.23H166.3s-2.8,6-4.82,10-4.25,8.18-4.25,8.18H25.76Z"/><rect class="cls-4" x="32.55" y="9.04" width="24.47" height="16.89" rx="2.71"/><rect class="cls-4" x="61.46" y="9.04" width="24.47" height="16.89" rx="2.71"/><rect class="cls-4" x="90.37" y="9.04" width="24.47" height="16.89" rx="2.71"/></g></g></svg>