<svg xmlns="http://www.w3.org/2000/svg" viewBox="0 0 363.54 84.87"><defs><style>.cls-1{fill:#d63636;}.cls-2{fill:#0c0c0c;}.cls-3{fill:#fff4e6;stroke:#0a0703;stroke-miterlimit:10;}</style></defs><g id="レイヤー_2" data-name="レイヤー 2"><g id="レイヤー_1-2" data-name="レイヤー 1"><path d="M36.19,84.87A9.68,9.68,0,0,0,44.59,80H77.42a9.69,9.69,0,0,0,16.81,0h47.06a9.68,9.68,0,0,0,16.8,0h32.83a9.69,9.69,0,0,0,16.81,0h66.56a9.68,9.68,0,0,0,16.8,0h32.83a9.69,9.69,0,0,0,16.81,0h22.81V76.33H0V80H27.79A9.69,9.69,0,0,0,36.19,84.87Z"/><rect x="182.67" y="34.56" width="8.03" height="0.5" transform="translate(30.03 142.16) rotate(-44.98)"/><rect x="184.26" y="36.15" width="8.03" height="0.5" transform="translate(29.4 143.79) rotate(-45)"/><rect x="179.15" y="35.36" width="16.66" height="0.5" transform="translate(29.73 143) rotate(-45)"/><rect x="155.87" y="34.56" width="8.03" height="0.5" transform="translate(22.19 123.22) rotate(-44.98)"/><rect x="157.46" y="36.15" width="8.03" height="0.5" transform="translate(21.53 124.8) rotate(-44.98)"/><rect x="152.36" y="35.36" width="16.66" height="0.5" transform="translate(21.88 124.06) rotate(-45)"/><path class="cls-1" d="M245.72,66.58h15.79a5,5,0,0,0,5-5V19.9a5,5,0,0,0-5-5H245.72ZM263.78,21V36.27H248.47V21ZM228,66.58h15.79V14.9H228a5,5,0,0,0-5,5V61.58A5,5,0,0,0,228,66.58ZM225.5,21h15.31V36.27H225.5Z"/><rect x="228.35" y="27.57" width="8.03" height="0.5" transform="translate(48.39 172.46) rotate(-45)"/><rect x="229.93" y="29.15" width="8.03" height="0.5" transform="translate(47.73 174.04) rotate(-45)"/><rect x="224.82" y="28.35" width="16.66" height="0.5" transform="translate(48.02 173.19) rotate(-44.98)"/><rect x="251.32" y="27.57" width="8.03" height="0.5" transform="translate(55.11 188.7) rotate(-45)"/><rect x="252.9" y="29.15" width="8.03" height="0.5" transform="translate(54.46 190.28) rotate(-45)"/><rect x="247.8" y="28.36" width="16.66" height="0.5" transform="translate(54.79 189.49) rotate(-45)"/><rect x="321.84" y="28.14" width="8.03" height="0.5" transform="translate(75.37 238.73) rotate(-45)"/><rect x="323.42" y="29.72" width="8.03" height="0.5" transform="translate(74.71 240.32) rotate(-45)"/><rect x="318.32" y="28.93" width="16.66" height="0.5" transform="translate(75.04 239.52) rotate(-45)"/><rect class="cls-2" x="204.01" width="78.41" height="5.15"/><rect class="cls-2" x="7.01" width="78.41" height="5.15"/><path class="cls-3" d="M352.12,74.37v-3.7H357V54.43c0-38.81-25.61-50.29-32.87-50.29H114.64V70.67H124v3.7ZM334.43,47.51H303.34V46.32h31.09Zm2.65-26.22A44.7,44.7,0,0,1,347.63,41H314.46V11.93h6.34C323.22,11.93,330.39,14.22,337.08,21.29ZM300,11.93h12.28V41.05H300ZM221,19.9a7,7,0,0,1,7-7h33.56a7,7,0,0,1,7,7V61.58a7,7,0,0,1-7,7H228a7,7,0,0,1-7-7ZM143.75,28h62.61V43.27H143.75ZM106.62,74.08h1.28v-70H2.88v70Zm-69-54.18a7,7,0,0,1,7-7H78.18a7,7,0,0,1,7,7V61.58a7,7,0,0,1-7,7H44.62a7,7,0,0,1-7-7Z"/><path class="cls-1" d="M62.39,66.58H78.18a5,5,0,0,0,5-5V19.9a5,5,0,0,0-5-5H62.39ZM80.45,21V36.27H65.14V21ZM44.62,66.58H60.41V14.9H44.62a5,5,0,0,0-5,5V61.58A5,5,0,0,0,44.62,66.58ZM42.17,21H57.48V36.27H42.17Z"/><rect x="45.02" y="27.57" width="8.03" height="0.5" transform="translate(-5.31 42.82) rotate(-45)"/><rect x="46.6" y="29.15" width="8.03" height="0.5" transform="translate(-5.97 44.4) rotate(-45)"/><rect x="41.49" y="28.36" width="16.66" height="0.5" transform="translate(-5.64 43.59) rotate(-44.98)"/><rect x="67.99" y="27.57" width="8.03" height="0.5" transform="translate(1.42 59.06) rotate(-45)"/><rect x="69.57" y="29.15" width="8.03" height="0.5" transform="translate(0.76 60.64) rotate(-45)"/><rect x="64.47" y="28.37" width="16.66" height="0.5" transform="translate(1.09 59.88) rotate(-45.02)"/><rect x="109.9" y="9.17" width="2.67" height="58.33"/></g></g></svg>