<svg xmlns="http://www.w3.org/2000/svg" xmlns:xlink="http://www.w3.org/1999/xlink" viewBox="0 0 1440 700"><defs><style>.cls-1,.cls-12,.cls-15,.cls-17,.cls-22,.cls-30,.cls-47,.cls-51,.cls-52,.cls-71,.cls-73,.cls-74{fill:none;}.cls-2{isolation:isolate;}.cls-3{clip-path:url(#clip-path);}.cls-4{fill:#f0f5dc;}.cls-5{fill:#64a0cc;}.cls-15,.cls-5,.cls-7{stroke:#040000;}.cls-10,.cls-11,.cls-12,.cls-14,.cls-15,.cls-17,.cls-18,.cls-23,.cls-28,.cls-38,.cls-41,.cls-5,.cls-7{stroke-miterlimit:10;}.cls-14,.cls-15,.cls-17,.cls-5,.cls-7{stroke-width:1.25px;}.cls-6{fill:#6298c1;}.cls-7{fill:#74c7de;}.cls-8{fill:#72b9cd;}.cls-9{fill:#6399a2;}.cls-10,.cls-16,.cls-23,.cls-24{fill:#fff;}.cls-10{stroke:#fff;}.cls-10,.cls-40,.cls-43,.cls-50,.cls-51{stroke-width:0.5px;}.cls-11,.cls-26,.cls-69,.cls-70,.cls-72{fill:#231815;}.cls-11,.cls-12,.cls-14,.cls-17,.cls-18,.cls-22,.cls-23,.cls-24,.cls-25,.cls-26,.cls-28,.cls-29,.cls-30,.cls-31,.cls-32,.cls-33,.cls-34,.cls-35,.cls-36,.cls-37,.cls-38,.cls-40,.cls-41,.cls-42,.cls-43,.cls-44,.cls-46,.cls-47,.cls-48,.cls-49,.cls-50,.cls-51,.cls-52,.cls-68,.cls-70,.cls-71,.cls-72,.cls-73,.cls-74{stroke:#231815;}.cls-13{fill:#040000;}.cls-14{fill:#67b6b8;}.cls-18{fill:#991f24;}.cls-19{fill:#f1f1f1;}.cls-20{fill:#ffe14c;}.cls-21,.cls-27{fill:#e95513;}.cls-21,.cls-27,.cls-76,.cls-77,.cls-78{mix-blend-mode:multiply;}.cls-21{opacity:0.34;}.cls-22,.cls-24,.cls-25,.cls-26,.cls-29,.cls-30,.cls-31,.cls-32,.cls-33,.cls-34,.cls-35,.cls-36,.cls-37,.cls-40,.cls-42,.cls-43,.cls-44,.cls-46,.cls-47,.cls-48,.cls-49,.cls-50,.cls-51,.cls-52,.cls-68,.cls-70,.cls-72,.cls-73,.cls-74{stroke-linecap:round;}.cls-22,.cls-24,.cls-25,.cls-26,.cls-29,.cls-30,.cls-31,.cls-32,.cls-33,.cls-34,.cls-35,.cls-36,.cls-37,.cls-40,.cls-42,.cls-43,.cls-44,.cls-46,.cls-47,.cls-48,.cls-49,.cls-50,.cls-51,.cls-52,.cls-68,.cls-70,.cls-71,.cls-72,.cls-73,.cls-74{stroke-linejoin:round;}.cls-25{fill:#00518a;}.cls-27{opacity:0.63;}.cls-28,.cls-45{fill:#de82aa;}.cls-28,.cls-29,.cls-33,.cls-34,.cls-35,.cls-36,.cls-37,.cls-38,.cls-41,.cls-42,.cls-44,.cls-47,.cls-48{stroke-width:0.75px;}.cls-29{fill:#2f302f;}.cls-30,.cls-32{stroke-width:0.25px;}.cls-31,.cls-37{fill:#525151;}.cls-32,.cls-39{fill:#3e3a39;}.cls-33,.cls-41{fill:#c8c9ca;}.cls-34,.cls-36{fill:#eeeeef;}.cls-34{opacity:0.84;}.cls-35,.cls-38{fill:#b4b4b5;}.cls-40{fill:#dbdcdc;}.cls-42{fill:#373838;}.cls-43{fill:#b2b1b1;}.cls-44{fill:#ed89b4;}.cls-46{fill:#7bc2bd;}.cls-48{fill:#d93736;}.cls-49{fill:#8ee0da;}.cls-50{fill:#bae0e6;}.cls-52{stroke-width:1.5px;}.cls-53,.cls-76{fill:#ccc6e2;}.cls-54{fill:#7e6aac;}.cls-55{fill:#4c69b0;}.cls-56{fill:#bf1920;}.cls-57{fill:#ad9fcc;}.cls-58{fill:#76c6c3;}.cls-59{fill:#005bab;}.cls-60{fill:#677b64;}.cls-61{fill:#807f80;}.cls-62{fill:#cf5499;}.cls-63{fill:#fce5c7;}.cls-64{fill:#faed00;}.cls-65,.cls-68{fill:#c4cae6;}.cls-66{fill:#eaed9a;}.cls-67{fill:#344b9d;}.cls-70{stroke-width:0.87px;}.cls-72{stroke-width:0.84px;}.cls-73{stroke-width:0.97px;}.cls-74{stroke-width:0.93px;}.cls-75{clip-path:url(#clip-path-4);}.cls-76,.cls-78{opacity:0.8;}.cls-77{fill:#a589bd;}.cls-79{clip-path:url(#clip-path-5);}</style><clipPath id="clip-path"><rect class="cls-1" width="1440" height="700"/></clipPath><clipPath id="clip-path-4"><path class="cls-1" d="M380.46,466.59s3.82-104.11,3.59-103.7c-28.6,50.33-75.35,145-237,195.89C72.9,582.17-3.52,585-3.5,584.73c0-.65.07,114,.07,114l855.74.95-1.91-191c-21-4.78-144.23-16.24-172.88-19.1S380.46,466.59,380.46,466.59Z"/></clipPath><clipPath id="clip-path-5"><path class="cls-1" d="M381.85,465.47S384.23,362.59,384,363c-28.56,50.26-73.81,143.66-235.17,194.52C74.74,580.87-1.56,583.73-1.54,583.43c0-.65.07,113.8.07,113.8l854.47.95L851,509c-21-4.77-143.92-17.78-172.54-20.64S381.85,465.47,381.85,465.47Z"/></clipPath></defs><g class="cls-2"><g id="レイヤー_2" data-name="レイヤー 2"><g class="cls-3"><g class="cls-3"><rect class="cls-4" width="1440" height="700"/><path class="cls-5" d="M1115.89,410.49c24.13.34,81.92,3,131.32,18.12s124.85,53.17,124.85,53.17-102-10.67-152.59-12.83-118-3.36-142.38-3.05-131.22,2.67-158.43,4-76.34,4.57-76.34,4.57,70.61-30.08,93.9-38,68.13-20.66,104.61-24.39S1115.89,410.49,1115.89,410.49Z"/><path class="cls-6" d="M1115.89,410.92s35.77.44,66.07,4.73c17.72,2.51,34.24,4.86,55.77,10.68,23.23,6.29,55,19.21,68.3,25.15,38.45,17.19,63.24,29.42,63.24,29.42s-110.55-10.08-119.44-10.6c-9.73-.57-21.16-1.4-21.16-1.4a48.91,48.91,0,0,1,4.34-7.34c2.66-3.93.9-17.66-19.48-30.79C1188.34,414.52,1115.89,410.92,1115.89,410.92Z"/><path class="cls-7" d="M745.72,495.89s4.92-7.73,65.92-17.56S1056,465.9,1105.47,465.9c74,0,149,5.14,203.88,9.88,37.93,3.27,74.21,6.85,81.7,8,21.26,3.35,65.91,11.82,76.47,21.76,0,0,5,36.36,7.15,56.87s9.63,145.71,9.32,151.92S1272.75,733,1153.35,733c-140.9,0-297.3-8-359.72-24-39.61-10.14-66.69-19.25-66.69-19.25Z"/><path class="cls-8" d="M1153.9,733.45c119.4-.7,329.67-11.9,330-18.12s-7.15-132.3-9.32-152.8-7.15-56.87-7.15-56.87c-10.57-9.94-55.21-18.42-76.47-21.77-7.49-1.18-43.19-4.19-81.11-7.47-28.89-2.49-44.45-4.67-81.43-6.58-44.17,62.7-150.3,217.4-289.91,257.32C994.63,731.3,1098.05,733.77,1153.9,733.45Z"/><polygon class="cls-9" points="1370.92 622.33 1141.76 623.51 973.01 620.37 974.1 537.97 1131.38 539.8 1371.27 546.53 1370.92 622.33"/><path class="cls-10" d="M1029.32,474.81h5.53v1.28h-4.22v2.64h3.6v1.2h-3.6v3.82h-1.31Z"/><path class="cls-10" d="M1037,474.81h1.31v5.77a1.85,1.85,0,0,0,.52,1.39,1.64,1.64,0,0,0,1.25.5,1.71,1.71,0,0,0,1.27-.5,1.88,1.88,0,0,0,.49-1.39v-5.77h1.32v5.91a3.07,3.07,0,0,1-.89,2.24,3,3,0,0,1-2.19.86,3,3,0,0,1-2.17-.86,2.93,2.93,0,0,1-.91-2.23Z"/><path class="cls-10" d="M1046.48,474.81h1.31v4.61h0l3.57-4.61h1.55l-2.77,3.53,3.06,5.41h-1.55l-2.36-4.37-1.52,1.65v2.72h-1.31Z"/><path class="cls-10" d="M1055.35,474.81h1.31v5.77a1.89,1.89,0,0,0,.51,1.39,1.84,1.84,0,0,0,2.52,0,1.85,1.85,0,0,0,.5-1.39v-5.77h1.31v5.91a3.1,3.1,0,0,1-5.24,2.24,2.93,2.93,0,0,1-.91-2.23Z"/><path class="cls-10" d="M1064,479.28a15.41,15.41,0,0,1,.09-2.09,2.49,2.49,0,0,1,.29-.85,3.07,3.07,0,0,1,1-1.1,3,3,0,0,1,1.7-.5,3,3,0,0,1,1.72.5,2.94,2.94,0,0,1,1,1.11,2.23,2.23,0,0,1,.3.85,27,27,0,0,1,0,4.15,2.33,2.33,0,0,1-.3.87,3,3,0,0,1-1,1.09,3,3,0,0,1-1.72.51,3,3,0,0,1-1.7-.51,3,3,0,0,1-1-1.09l-.17-.39a2.39,2.39,0,0,1-.12-.48A15.25,15.25,0,0,1,1064,479.28Zm1.31,0a10,10,0,0,0,.1,1.79,1.37,1.37,0,0,0,.34.75,1.41,1.41,0,0,0,.54.45,1.46,1.46,0,0,0,.8.2,1.52,1.52,0,0,0,.81-.2,1.37,1.37,0,0,0,.53-.45,1.64,1.64,0,0,0,.35-.75,11.43,11.43,0,0,0,.09-1.79,11.68,11.68,0,0,0-.09-1.8,1.65,1.65,0,0,0-.35-.74,1.49,1.49,0,0,0-.53-.46,1.86,1.86,0,0,0-.81-.19,1.78,1.78,0,0,0-.8.19,1.52,1.52,0,0,0-.54.46,1.38,1.38,0,0,0-.34.74A10.18,10.18,0,0,0,1065.31,479.28Z"/><path class="cls-10" d="M1072.83,474.81h1.31v4.61h0l3.57-4.61h1.55l-2.77,3.53,3.06,5.41H1078l-2.36-4.37-1.52,1.65v2.72h-1.31Z"/><path class="cls-10" d="M1086.55,481.75h-3.29l-.66,2h-1.39l3.15-8.94h1.09l3.15,8.94h-1.38Zm-.38-1.2-1.25-3.91h0l-1.26,3.91Z"/><line class="cls-11" x1="733.48" y1="581.09" x2="966.51" y2="586.27"/><path class="cls-12" d="M738.09,548s4.9-2.9,14.76-3.67,183.35-5.19,222.25-4.41"/><rect class="cls-13" x="1069.13" y="492.68" width="4.4" height="22.72"/><rect class="cls-13" x="1051.97" y="492.68" width="4.4" height="22.72"/><rect class="cls-13" x="1034.79" y="492.68" width="4.4" height="22.72"/><rect class="cls-13" x="1018.25" y="492.68" width="4.4" height="22.72"/><rect class="cls-13" x="1000.24" y="491.97" width="4.4" height="22.72"/><rect class="cls-13" x="984.11" y="491.97" width="4.4" height="22.72"/><rect class="cls-13" x="967.42" y="492.68" width="4.4" height="22.72" transform="translate(23.73 -43.24) rotate(2.59)"/><rect class="cls-13" x="952.68" y="492.76" width="4.4" height="22.72" transform="translate(23.72 -42.58) rotate(2.59)"/><rect class="cls-13" x="936.82" y="492.76" width="4.4" height="22.72" transform="translate(23.71 -41.86) rotate(2.59)"/><rect class="cls-13" x="921.75" y="494.05" width="4.4" height="22.72" transform="translate(23.75 -41.18) rotate(2.59)"/><rect class="cls-13" x="907.65" y="494.05" width="4.4" height="22.72" transform="translate(23.73 -40.54) rotate(2.59)"/><rect class="cls-13" x="893.71" y="494.69" width="4.4" height="22.72" transform="matrix(1, 0.05, -0.05, 1, 23.75, -39.91)"/><rect class="cls-13" x="880.41" y="494.69" width="4.4" height="22.72" transform="translate(23.74 -39.31) rotate(2.59)"/><rect class="cls-13" x="867.27" y="494.69" width="4.4" height="22.72" transform="translate(23.72 -38.72) rotate(2.59)"/><rect class="cls-13" x="855.73" y="496.13" width="4.4" height="22.72" transform="translate(23.78 -38.2) rotate(2.59)"/><rect class="cls-13" x="844.83" y="497.52" width="3.41" height="21.35" transform="translate(23.8 -37.68) rotate(2.59)"/><rect class="cls-13" x="833.61" y="497.52" width="3.41" height="21.35" transform="translate(44.73 -67.12) rotate(4.73)"/><rect class="cls-13" x="823.49" y="499.45" width="2.51" height="20.32" transform="translate(44.81 -66.24) rotate(4.73)"/><rect class="cls-13" x="814.47" y="500.06" width="2.51" height="20.32" transform="translate(44.83 -65.5) rotate(4.73)"/><rect class="cls-13" x="805.58" y="500.63" width="2.51" height="20.32" transform="translate(44.85 -64.76) rotate(4.73)"/><rect class="cls-13" x="797.43" y="501.37" width="2.51" height="20.32" transform="translate(44.88 -64.09) rotate(4.73)"/><rect class="cls-13" x="788.63" y="502.23" width="2.51" height="19.7" transform="translate(44.89 -63.36) rotate(4.73)"/><rect class="cls-13" x="782.12" y="503.18" width="2.51" height="19.7" transform="translate(44.95 -62.82) rotate(4.73)"/><rect class="cls-13" x="775.95" y="503.98" width="2" height="19.7" transform="translate(45 -62.29) rotate(4.73)"/><rect class="cls-13" x="769.79" y="504.84" width="2" height="19.7" transform="translate(45.04 -61.78) rotate(4.73)"/><rect class="cls-13" x="764.25" y="506.18" width="2" height="19.08" transform="translate(64.55 -84.77) rotate(6.62)"/><rect class="cls-13" x="760.19" y="507.46" width="1.47" height="18.46" transform="translate(64.63 -84.27) rotate(6.62)"/><rect class="cls-13" x="755.83" y="508.05" width="1.47" height="18.46" transform="translate(45.21 -60.6) rotate(4.73)"/><rect class="cls-13" x="752.08" y="509.35" width="1.47" height="17.93" transform="translate(45.28 -60.29) rotate(4.73)"/><rect class="cls-13" x="749.43" y="509.82" width="1.13" height="17.93" transform="translate(45.31 -60.05) rotate(4.73)"/><rect class="cls-13" x="746.41" y="511.26" width="1.13" height="17.48" transform="translate(45.4 -59.8) rotate(4.73)"/><rect class="cls-13" x="743.56" y="512.46" width="1.13" height="17.48" transform="translate(45.49 -59.56) rotate(4.73)"/><rect class="cls-13" x="1086.74" y="492.68" width="4.4" height="22.72"/><rect class="cls-13" x="1104.34" y="492.68" width="4.4" height="22.72"/><rect class="cls-13" x="1121.95" y="492.68" width="4.4" height="22.72"/><rect class="cls-13" x="1139.56" y="492.68" width="4.4" height="22.72"/><rect class="cls-13" x="1157.17" y="492.68" width="4.4" height="22.72"/><rect class="cls-13" x="1174.77" y="494.12" width="4.4" height="22.72"/><rect class="cls-13" x="1191.9" y="495.02" width="4.4" height="22.72"/><rect class="cls-13" x="1209.13" y="495.02" width="4.4" height="22.72"/><rect class="cls-13" x="1224.45" y="495.74" width="4.4" height="22.72"/><rect class="cls-13" x="1240.86" y="495.74" width="4.4" height="22.72"/><rect class="cls-13" x="1257.08" y="497" width="4.4" height="22.72"/><rect class="cls-13" x="1272.4" y="497.9" width="4.4" height="22.72"/><rect class="cls-13" x="1287" y="498.63" width="4.4" height="22.72"/><rect class="cls-13" x="1301.6" y="499.53" width="4.4" height="22.72"/><rect class="cls-13" x="1315.12" y="500.09" width="4.4" height="22.15"/><rect class="cls-13" x="1328.05" y="500.86" width="4.4" height="22.15"/><rect class="cls-13" x="1340.27" y="501.49" width="4.4" height="22.15"/><rect class="cls-13" x="1352.7" y="502.78" width="4.4" height="22.15"/><rect class="cls-13" x="1395.5" y="507.24" width="3.3" height="20.86"/><rect class="cls-13" x="1386.22" y="506.22" width="3.3" height="20.86" transform="matrix(1, -0.06, 0.06, 1, -30.49, 90.78)"/><rect class="cls-13" x="1375.18" y="505.21" width="3.3" height="20.86"/><rect class="cls-13" x="1364.49" y="504.38" width="3.59" height="20.86"/><rect class="cls-13" x="1404.55" y="508.08" width="3.3" height="20.86" transform="matrix(1, -0.06, 0.06, 1, -30.57, 91.97)"/><rect class="cls-13" x="1412.6" y="508.83" width="3.3" height="20.86" transform="matrix(1, -0.06, 0.06, 1, -30.6, 92.49)"/><rect class="cls-13" x="1420.14" y="510.09" width="3.3" height="20.86" transform="matrix(1, -0.06, 0.06, 1, -30.67, 92.98)"/><rect class="cls-13" x="1427.37" y="511.3" width="2.96" height="20.15" transform="translate(-30.71 93.44) rotate(-3.71)"/><rect class="cls-13" x="1433.83" y="512.4" width="2.6" height="20.15" transform="translate(-30.77 93.85) rotate(-3.71)"/><rect class="cls-13" x="1439.86" y="513" width="2.01" height="20.15" transform="translate(-30.79 94.22) rotate(-3.71)"/><path class="cls-12" d="M1370.93,548.07s63.72,2.85,77.5,4.33c17,1.83,25.28,4.34,25.28,4.34"/><path class="cls-12" d="M1371.55,569.79c.54-.56,70.38.67,79.64,1.21a234.48,234.48,0,0,1,24.38,2.83"/><path class="cls-12" d="M1374.06,590.37h103.31"/><polygon class="cls-14" points="1001.79 539.8 1000.8 620.37 1002.97 620.27 1004.08 540.18 1001.79 539.8"/><polygon class="cls-14" points="972.81 539.8 971.83 620.37 974 620.27 975.1 540.18 972.81 539.8"/><polygon class="cls-14" points="1030.62 539.8 1029.76 620.41 1031.93 620.32 1032.9 540.18 1030.62 539.8"/><polygon class="cls-14" points="1060.97 539.8 1059.73 620.35 1061.9 620.27 1063.26 540.19 1060.97 539.8"/><polygon class="cls-14" points="1091.77 539.82 1092.32 620.38 1094.49 620.25 1094.06 540.16 1091.77 539.82"/><polygon class="cls-14" points="1218.55 542.26 1218.11 621 1215.94 620.87 1216.26 542.59 1218.55 542.26"/><polygon class="cls-14" points="1246.56 543.14 1246.12 621.88 1243.95 621.75 1244.27 543.46 1246.56 543.14"/><polygon class="cls-14" points="1273.71 543.89 1273.27 622.63 1271.1 622.5 1271.41 544.21 1273.71 543.89"/><polygon class="cls-14" points="1301.6 543.93 1301.16 622.67 1298.99 622.54 1299.31 544.26 1301.6 543.93"/><polygon class="cls-14" points="1325.19 544.63 1324.75 623.38 1322.58 623.24 1322.9 544.96 1325.19 544.63"/><polygon class="cls-14" points="1348.38 545.34 1349.74 624.07 1347.57 623.99 1346.09 545.72 1348.38 545.34"/><polygon class="cls-14" points="1371.27 546.53 1371.95 623.56 1369.78 623.46 1368.98 546.89 1371.27 546.53"/><polygon class="cls-14" points="1125.05 540.87 1124.85 620.43 1127.02 620.3 1127.86 540.87 1125.05 540.87"/><polygon class="cls-14" points="1155.87 540.87 1155.66 620.43 1157.83 620.3 1158.67 540.87 1155.87 540.87"/><polygon class="cls-14" points="1185.53 540.87 1185.32 620.43 1187.49 620.3 1188.34 540.87 1185.53 540.87"/><path class="cls-14" d="M963.6,539.81V536.1S1133.66,537.46,1177,538s201.5,5.94,201.5,5.94v4.53s-184.1-5.85-201.5-6.16S963.6,539.81,963.6,539.81Z"/><path class="cls-14" d="M963.6,564.58v-3.7s170.06,1.35,213.38,1.85,201.5,5.94,201.5,5.94v4.53s-184.1-5.86-201.5-6.16S963.6,564.58,963.6,564.58Z"/><path class="cls-14" d="M960.6,585.9l-.08,3.7s172.58,2.34,215.9,2.69,207.21,2.61,207.21,2.61l.09-4.53s-189.89-2.57-207.3-2.61S960.6,585.9,960.6,585.9Z"/><path class="cls-14" d="M957.75,618.43v4.16s170.85,3.64,201.62,3.64,226.07-2.11,226.07-2.11v-4.68s-212.81.88-227,.76Z"/><path class="cls-15" d="M943.87,469s18.34-17.43,37.49-30.11c23.72-15.71,57.83-26.63,57.83-26.63"/><path class="cls-16" d="M1134.76,485.31h-2V469.62h4.37a8.6,8.6,0,0,1,3.52.51,3.49,3.49,0,0,1,1.55,1.49,4.92,4.92,0,0,1,.52,2.29,5,5,0,0,1-1.5,3.7,6.11,6.11,0,0,1-4.48,1.5h-1.94Zm0-7.77h1.38c1.8,0,3-.35,3.57-1a3.83,3.83,0,0,0,.85-2.5,2.93,2.93,0,0,0-.69-2,3.63,3.63,0,0,0-2.74-.78h-2.37Z"/><path class="cls-16" d="M1135.11,485.66h-2.74v-16.4h4.72a8.8,8.8,0,0,1,3.68.55,3.82,3.82,0,0,1,1.7,1.65,5.21,5.21,0,0,1,.56,2.45,5.36,5.36,0,0,1-1.61,3.95,6.43,6.43,0,0,1-4.72,1.6h-1.59Zm0-8.47h1c1.68,0,2.79-.31,3.29-.91a3.43,3.43,0,0,0,.78-2.28,2.59,2.59,0,0,0-.6-1.81,3.43,3.43,0,0,0-2.48-.65h-2Z"/><path class="cls-16" d="M1153,484.91a5.43,5.43,0,0,1-.29-1.57,6.49,6.49,0,0,1-2,1.55,4.55,4.55,0,0,1-1.63.33,3.27,3.27,0,0,1-2.25-.82,3.13,3.13,0,0,1,.38-4.79,13.65,13.65,0,0,1,4.56-1.54l1-.19v-1.27a1.58,1.58,0,0,0-.67-1.46,3,3,0,0,0-1.62-.42,2.73,2.73,0,0,0-1.76.51,1.54,1.54,0,0,0-.63,1.21v.16h-2v-.15a2.51,2.51,0,0,1,.62-1.55,3.79,3.79,0,0,1,1.64-1.2,6,6,0,0,1,2.24-.41,5.94,5.94,0,0,1,2.2.39,3,3,0,0,1,1.44,1,4.55,4.55,0,0,1,.46,2.45v4.39c0,.47,0,1,0,1.51a7.62,7.62,0,0,0,.35,1.84Zm-.29-5.69-.55.14a10.46,10.46,0,0,0-3.52,1.32,1.86,1.86,0,0,0-.77,1.49,1.53,1.53,0,0,0,.23.83,1.51,1.51,0,0,0,.67.6,2.1,2.1,0,0,0,.89.21,2.88,2.88,0,0,0,1.5-.46,3.21,3.21,0,0,0,1.14-1.23,3.74,3.74,0,0,0,.41-1.78Z"/><path class="cls-16" d="M1149,485.57a3.64,3.64,0,0,1-2.49-.91,3.47,3.47,0,0,1,.42-5.34,13.44,13.44,0,0,1,4.7-1.59l.7-.14v-1a1.25,1.25,0,0,0-.51-1.16,2.6,2.6,0,0,0-1.43-.37,2.41,2.41,0,0,0-1.54.44,1.16,1.16,0,0,0-.5.93V477h-2.75v-.5a2.94,2.94,0,0,1,.7-1.77,4.12,4.12,0,0,1,1.79-1.31,6.84,6.84,0,0,1,4.7,0,3.37,3.37,0,0,1,1.6,1.16,4.84,4.84,0,0,1,.52,2.65v4.38c0,.48,0,1,0,1.5a7.39,7.39,0,0,0,.34,1.76l.14.45h-2.71l-.08-.24a6.62,6.62,0,0,1-.24-.92,5.65,5.65,0,0,1-1.65,1.12A4.7,4.7,0,0,1,1149,485.57Zm3.33-5.9-.11,0a9.9,9.9,0,0,0-3.39,1.25,1.53,1.53,0,0,0-.64,1.22,1.22,1.22,0,0,0,.18.65,1.3,1.3,0,0,0,.52.46,2.06,2.06,0,0,0,2-.23,2.89,2.89,0,0,0,1-1.09,3.49,3.49,0,0,0,.37-1.62Z"/><path class="cls-16" d="M1162.84,484.74l-4.85-10.8h2.08l3.78,8.39,3.55-8.39h1.88l-4.76,11.3a12.88,12.88,0,0,1-1.6,3,3.88,3.88,0,0,1-1.38,1.05,5.08,5.08,0,0,1-1.92.3h-1.42v-1.57h1.06a4.08,4.08,0,0,0,1.37-.2,2.27,2.27,0,0,0,1-.66,9.34,9.34,0,0,0,1.05-2Z"/><path class="cls-16" d="M1159.62,490h-1.77V487.7h1.41a3.88,3.88,0,0,0,1.25-.18,2,2,0,0,0,.83-.56,8.82,8.82,0,0,0,1-1.91l.12-.31-5-11.15h2.85l3.54,7.86,3.33-7.86h2.64l-5,11.78a12.65,12.65,0,0,1-1.67,3.13,4,4,0,0,1-1.5,1.14A5.41,5.41,0,0,1,1159.62,490Z"/><path class="cls-16" d="M1176.59,486.62h-2.74v-16.4h4.71a8.77,8.77,0,0,1,3.68.55,3.79,3.79,0,0,1,1.71,1.65,5.21,5.21,0,0,1,.56,2.45,5.36,5.36,0,0,1-1.61,3.95,6.43,6.43,0,0,1-4.72,1.6h-1.59Zm0-8.47h1c1.69,0,2.8-.31,3.3-.92a3.39,3.39,0,0,0,.78-2.27,2.64,2.64,0,0,0-.6-1.81,3.44,3.44,0,0,0-2.49-.66h-2Z"/><path class="cls-16" d="M1194.44,486.4a5.43,5.43,0,0,1-.29-1.56,6.65,6.65,0,0,1-2.05,1.55,4.55,4.55,0,0,1-1.63.33,3.28,3.28,0,0,1-2.25-.83,2.84,2.84,0,0,1-.94-2.26,2.87,2.87,0,0,1,1.32-2.53,13.46,13.46,0,0,1,4.56-1.53l1-.19V478.1a1.58,1.58,0,0,0-.67-1.46,3,3,0,0,0-1.62-.42,2.68,2.68,0,0,0-1.76.52,1.51,1.51,0,0,0-.63,1.2v.16h-2V478a2.57,2.57,0,0,1,.61-1.55,3.89,3.89,0,0,1,1.65-1.2,6,6,0,0,1,2.24-.4,5.94,5.94,0,0,1,2.2.38,3,3,0,0,1,1.44,1,4.52,4.52,0,0,1,.46,2.45v4.38c0,.48,0,1,0,1.51a8.11,8.11,0,0,0,.36,1.84Zm-.29-5.69-.55.14a10.93,10.93,0,0,0-3.52,1.32,1.87,1.87,0,0,0-.77,1.5,1.5,1.5,0,0,0,.23.82,1.46,1.46,0,0,0,.67.6,2.1,2.1,0,0,0,.89.21,2.79,2.79,0,0,0,1.5-.46,3.11,3.11,0,0,0,1.14-1.22,3.81,3.81,0,0,0,.41-1.79Z"/><path class="cls-16" d="M1190.47,487.07a3.69,3.69,0,0,1-2.49-.91,3.48,3.48,0,0,1,.42-5.35,13.87,13.87,0,0,1,4.7-1.59l.7-.13v-1a1.25,1.25,0,0,0-.51-1.16,2.69,2.69,0,0,0-1.43-.37,2.41,2.41,0,0,0-1.54.44,1.17,1.17,0,0,0-.5.93v.51h-2.75V478a2.89,2.89,0,0,1,.7-1.76,4.14,4.14,0,0,1,1.79-1.32,6.9,6.9,0,0,1,4.7,0,3.37,3.37,0,0,1,1.6,1.16,4.86,4.86,0,0,1,.52,2.66v4.38c0,.47,0,1,0,1.49a6.92,6.92,0,0,0,.34,1.76l.14.45h-2.71l-.08-.24a6.28,6.28,0,0,1-.24-.92,5.52,5.52,0,0,1-1.65,1.13A4.91,4.91,0,0,1,1190.47,487.07Zm3.33-5.91-.11,0a9.57,9.57,0,0,0-3.39,1.26,1.53,1.53,0,0,0-.64,1.22,1.21,1.21,0,0,0,.18.64,1.17,1.17,0,0,0,.52.46,2,2,0,0,0,2.05-.23,2.89,2.89,0,0,0,1-1.09,3.46,3.46,0,0,0,.37-1.62Z"/><path class="cls-16" d="M1204.08,486l-4.85-10.79h2.09l3.78,8.39,3.54-8.39h1.89l-4.76,11.29a12.39,12.39,0,0,1-1.61,3,3.73,3.73,0,0,1-1.37,1.05,5.17,5.17,0,0,1-1.93.3h-1.41v-1.56h1.06a4,4,0,0,0,1.36-.21,2.3,2.3,0,0,0,1-.66,8.85,8.85,0,0,0,1-2Z"/><path class="cls-16" d="M1200.86,491.2h-1.77v-2.27h1.42a3.85,3.85,0,0,0,1.24-.19,2,2,0,0,0,.83-.56,8.54,8.54,0,0,0,1-1.91l.13-.31-5-11.15h2.85l3.55,7.87,3.32-7.87h2.64l-5,11.79a12.73,12.73,0,0,1-1.67,3.12,4.17,4.17,0,0,1-1.5,1.15A5.62,5.62,0,0,1,1200.86,491.2Z"/><path class="cls-16" d="M1219.24,487.38V471.69h4.34a9.54,9.54,0,0,1,4.63.86,5.8,5.8,0,0,1,2.29,2.62,10.14,10.14,0,0,1,.82,4.31,10.6,10.6,0,0,1-.74,4.12,6.25,6.25,0,0,1-2.25,2.76,8,8,0,0,1-4.47,1Zm2-1.73h2.41a6.65,6.65,0,0,0,3.25-.63,4,4,0,0,0,1.69-2,8.76,8.76,0,0,0,.58-3.4,10.46,10.46,0,0,0-.53-3.51,4.18,4.18,0,0,0-1.62-2.17,6.47,6.47,0,0,0-3.42-.7h-2.36Z"/><path class="cls-16" d="M1223.86,487.73h-5V471.34h4.69a9.77,9.77,0,0,1,4.81.91,6.14,6.14,0,0,1,2.43,2.77,10.69,10.69,0,0,1,.85,4.46,10.86,10.86,0,0,1-.77,4.25,6.57,6.57,0,0,1-2.37,2.92A8.35,8.35,0,0,1,1223.86,487.73Zm-2.23-2.43h2.06a6.33,6.33,0,0,0,3.08-.59,3.69,3.69,0,0,0,1.53-1.81,8.26,8.26,0,0,0,.56-3.26,10,10,0,0,0-.52-3.39,3.78,3.78,0,0,0-1.47-2,6.29,6.29,0,0,0-3.23-.64h-2Z"/><path class="cls-16" d="M1238.7,488.59a5.6,5.6,0,0,1-4-1.6,7.48,7.48,0,0,1,0-9.42,5.84,5.84,0,0,1,8,0,7.48,7.48,0,0,1,0,9.42A5.63,5.63,0,0,1,1238.7,488.59Zm0-10.35a2.57,2.57,0,0,0-2.17,1.07,5.56,5.56,0,0,0,0,5.94,2.73,2.73,0,0,0,4.33,0,5.61,5.61,0,0,0,0-5.94A2.57,2.57,0,0,0,1238.7,478.24Z"/><path class="cls-16" d="M1249.23,488.81h-1.88V477.52h1.88v2a5.68,5.68,0,0,1,1.09-1.47,3.68,3.68,0,0,1,1.14-.67,4.1,4.1,0,0,1,2.65,0,3,3,0,0,1,1.1.65,4.51,4.51,0,0,1,.92,1.49,5.18,5.18,0,0,1,1.14-1.44,4.09,4.09,0,0,1,1.15-.69,3.48,3.48,0,0,1,1.26-.23,3.42,3.42,0,0,1,1.74.45,3,3,0,0,1,1.2,1.28,6.74,6.74,0,0,1,.42,2.82v7.06h-1.88v-6.28a7.84,7.84,0,0,0-.24-2.52,1.82,1.82,0,0,0-.66-.8,1.77,1.77,0,0,0-1-.28,2.54,2.54,0,0,0-1.55.52,3.74,3.74,0,0,0-1.13,1.4,5.7,5.7,0,0,0-.43,2.47v5.49h-1.88v-6.27A8.4,8.4,0,0,0,1254,480a1.61,1.61,0,0,0-.69-.81,2.06,2.06,0,0,0-1-.28,2.54,2.54,0,0,0-1.51.54,3.5,3.5,0,0,0-1.16,1.43,5.75,5.75,0,0,0-.42,2.42Z"/><path class="cls-16" d="M1263.39,489.16h-2.59v-6.63a7.56,7.56,0,0,0-.2-2.37,1.54,1.54,0,0,0-.53-.66,1.47,1.47,0,0,0-.83-.22,2.16,2.16,0,0,0-1.34.46,3.36,3.36,0,0,0-1,1.27,5.43,5.43,0,0,0-.39,2.31v5.84h-2.58v-6.62a7.84,7.84,0,0,0-.19-2.38,1.33,1.33,0,0,0-.55-.64,1.87,1.87,0,0,0-2.14.23,3.33,3.33,0,0,0-1.06,1.3,5.57,5.57,0,0,0-.38,2.27v5.84H1247v-12h2.59v1.22a3.55,3.55,0,0,1,.51-.56,4.27,4.27,0,0,1,1.25-.73,4.44,4.44,0,0,1,2.88,0,3.36,3.36,0,0,1,1.23.72,4,4,0,0,1,.73,1,4.58,4.58,0,0,1,.87-1,5,5,0,0,1,1.24-.74,4,4,0,0,1,3.3.25,3.34,3.34,0,0,1,1.34,1.42,7,7,0,0,1,.46,3Z"/><path class="cls-16" d="M1273.47,486.49h1.88v.1a2.57,2.57,0,0,1-.59,1.53,3.68,3.68,0,0,1-1.55,1.18,5.67,5.67,0,0,1-2.22.41,4.79,4.79,0,0,1-3.91-1.67,7.17,7.17,0,0,1,.08-8.54,5,5,0,0,1,6-1.16,3.87,3.87,0,0,1,1.62,1.74,7.33,7.33,0,0,1,.6,3.28V484h-7.85a4.6,4.6,0,0,0,.94,3,3.23,3.23,0,0,0,2.64,1.17,2.66,2.66,0,0,0,1.76-.48,1.4,1.4,0,0,0,.56-1.07Zm-5.79-3.92h5.94v-.22a3.32,3.32,0,0,0-.37-1.53,2.33,2.33,0,0,0-1-1.1,3.07,3.07,0,0,0-1.51-.36,2.64,2.64,0,0,0-1.89.84A4.28,4.28,0,0,0,1267.68,482.57Z"/><path class="cls-16" d="M1271,490.06a5.11,5.11,0,0,1-4.18-1.8,6.74,6.74,0,0,1-1.46-4.44,6.85,6.85,0,0,1,1.54-4.55,5.33,5.33,0,0,1,6.48-1.23,4.26,4.26,0,0,1,1.77,1.88,7.77,7.77,0,0,1,.63,3.44v1h-7.84a4.06,4.06,0,0,0,.86,2.41,2.85,2.85,0,0,0,2.36,1,2.3,2.3,0,0,0,1.53-.4,1.06,1.06,0,0,0,.44-.8v-.45h2.58v.45a2.87,2.87,0,0,1-.66,1.74,3.93,3.93,0,0,1-1.69,1.3A6.24,6.24,0,0,1,1271,490.06Zm-2.87-7.84h5.15a3.14,3.14,0,0,0-.33-1.25,2.2,2.2,0,0,0-.88-1,2.73,2.73,0,0,0-1.34-.31,2.31,2.31,0,0,0-1.65.74A3.72,3.72,0,0,0,1268.12,482.22Z"/><path class="cls-17" d="M1135.88,411.14s14.32,13.91,22,29.32a236.44,236.44,0,0,1,11.44,26.78"/><path class="cls-15" d="M1204.88,418.67s34.32,19.18,52.2,31,34.32,24.63,34.32,24.63"/><path class="cls-15" d="M1065,411.14s7.16,19.61,9.18,30.5,3,24.26,3,24.26"/><path class="cls-15" d="M1022.65,466.71s15.83-18.2,21.95-23.65,25.47-16.7,25.47-16.7"/><path class="cls-15" d="M745.72,495.89s4.92-7.73,65.92-17.56S1056,465.9,1105.47,465.9c74,0,149,5.14,203.88,9.88,37.93,3.27,74.21,6.85,81.7,8,21.26,3.35,65.91,11.82,76.47,21.76,0,0,5,36.36,7.15,56.87s9.63,145.71,9.32,151.92S1272.75,733,1153.35,733c-140.9,0-297.3-8-359.72-24-39.61-10.14-66.69-19.25-66.69-19.25Z"/><rect class="cls-18" x="1096.42" y="462.95" width="29.02" height="29.02" rx="7.33"/><path class="cls-19" d="M1117.12,470.3a22.59,22.59,0,0,0-8.92-3.34,70.27,70.27,0,0,0-11.48,0,4.45,4.45,0,0,0-.13,1.47v3.65l10.47.15L1102,491.82h2.87l1.56-5.84a26.2,26.2,0,0,0,8.91-1.26c3.81-1.48,6.21-3.24,6.54-6.39C1122.19,474.87,1119.07,471.68,1117.12,470.3Zm2.33,7.87c-.18,1.85-2.3,3.05-5.56,3.92a23.64,23.64,0,0,1-6.77.27l2.3-9.93s4-.33,6.7,1.15C1117.74,474.47,1119.65,476.15,1119.45,478.17Z"/><rect class="cls-12" x="1096.42" y="462.95" width="29.02" height="29.02" rx="7.33"/></g></g><path class="cls-20" d="M466.85,19.91v-.79l2.94-1.72,2.63,1.65.32.86,1.62.56v1.69l.51.59v3.53l-2.13,1.29V56.74l1.62.78.51,52,2.43-.2-.24,2.65-.93.42.23,1.47,2.51.38v2l2.23.93v2.13l-1.63.52v2.48H480l.63-1.22h1.58v1.22l3.52-.1.23,3.53h-1.44l-.3,10,17.56.61,11,377.12H421.27L435.36,133.6l17.9.76.83.23v-8.71l4.3-2.7v-4.11s-1.26-1.6-1.07-2.06,1.19-2.39,2.53-2.33l-.05-2.25,4-1.71L464.52,57l1.93-.75V26.82l-1.73-.7-.19-3.07.55-.77L465,20.44Z"/><polygon class="cls-21" points="501.14 136.52 512.12 513.63 469.85 513.63 469.85 144.51 501.14 136.52"/><line class="cls-22" x1="512.54" y1="513.03" x2="501.56" y2="135.91"/><line class="cls-22" x1="470.28" y1="143.9" x2="470.28" y2="543.12"/><line class="cls-22" x1="453.83" y1="212.5" x2="448.07" y2="534.59"/><polygon class="cls-22" points="435.65 133.6 501.56 135.91 470.28 143.9 435.65 133.6"/><ellipse class="cls-22" cx="470.14" cy="130.23" rx="3.2" ry="4.39" transform="translate(240.19 560.48) rotate(-77.36)"/><ellipse class="cls-22" cx="478.46" cy="133.01" rx="1.51" ry="2.72" transform="translate(109.72 465.64) rotate(-57.59)"/><ellipse class="cls-22" cx="460.9" cy="117.47" rx="2.81" ry="3.86" transform="translate(153.29 480.24) rotate(-64)"/><line class="cls-22" x1="469.56" y1="17.05" x2="469.56" y2="1.48"/><polyline class="cls-22" points="465.8 26.58 464.49 25.77 464.29 22.5 467.17 20.79 472.31 20.69 474.63 22.4 474.63 26.06 472.78 27"/><polyline class="cls-22" points="466.62 19.56 466.62 18.77 469.57 17.05 472.5 18.89 472.5 19.56"/><polyline class="cls-22" points="464.91 22.13 464.78 20.09 469.46 19.12 474.13 20.12 474.13 21.81"/><polyline class="cls-22" points="473.66 25.57 469.46 22.7 465.7 25.3"/><line class="cls-22" x1="469.46" y1="23.09" x2="469.46" y2="55.1"/><line class="cls-22" x1="466.22" y1="55.87" x2="466.22" y2="24.94"/><line class="cls-22" x1="472.5" y1="24.94" x2="472.5" y2="56.39"/><line class="cls-22" x1="466.22" y1="27" x2="469.2" y2="25.93"/><line class="cls-22" x1="466.22" y1="27" x2="469.2" y2="25.93"/><line class="cls-22" x1="472.19" y1="27" x2="469.2" y2="25.93"/><line class="cls-23" x1="466.22" y1="29.24" x2="469.2" y2="28.17"/><line class="cls-23" x1="472.19" y1="29.24" x2="469.2" y2="28.17"/><line class="cls-23" x1="466.22" y1="31.48" x2="469.2" y2="30.41"/><line class="cls-23" x1="472.19" y1="31.48" x2="469.2" y2="30.41"/><line class="cls-23" x1="466.22" y1="33.72" x2="469.2" y2="32.65"/><line class="cls-23" x1="472.19" y1="33.72" x2="469.2" y2="32.65"/><line class="cls-23" x1="466.22" y1="35.96" x2="469.2" y2="34.89"/><line class="cls-23" x1="472.19" y1="35.96" x2="469.2" y2="34.89"/><line class="cls-23" x1="466.22" y1="38.2" x2="469.2" y2="37.13"/><line class="cls-23" x1="472.19" y1="38.2" x2="469.2" y2="37.13"/><line class="cls-23" x1="466.22" y1="40.44" x2="469.2" y2="39.37"/><line class="cls-23" x1="472.19" y1="40.44" x2="469.2" y2="39.37"/><line class="cls-23" x1="466.22" y1="42.68" x2="469.2" y2="41.61"/><line class="cls-23" x1="472.19" y1="42.68" x2="469.2" y2="41.61"/><line class="cls-23" x1="466.22" y1="44.92" x2="469.2" y2="43.85"/><line class="cls-23" x1="472.19" y1="44.92" x2="469.2" y2="43.85"/><line class="cls-23" x1="466.22" y1="47.16" x2="469.2" y2="46.09"/><line class="cls-23" x1="472.19" y1="47.16" x2="469.2" y2="46.09"/><line class="cls-23" x1="466.22" y1="49.4" x2="469.2" y2="48.33"/><line class="cls-23" x1="472.19" y1="49.4" x2="469.2" y2="48.33"/><line class="cls-23" x1="466.22" y1="51.64" x2="469.2" y2="50.57"/><line class="cls-23" x1="472.19" y1="51.64" x2="469.2" y2="50.57"/><line class="cls-23" x1="466.22" y1="53.88" x2="469.2" y2="52.81"/><line class="cls-23" x1="472.19" y1="53.88" x2="469.2" y2="52.81"/><line class="cls-24" x1="462.91" y1="59.27" x2="469.2" y2="57"/><line class="cls-24" x1="475.5" y1="59.76" x2="469.2" y2="57"/><line class="cls-24" x1="462.91" y1="60.86" x2="469.2" y2="58.59"/><line class="cls-24" x1="475.5" y1="61.35" x2="469.2" y2="58.59"/><line class="cls-24" x1="462.91" y1="62.45" x2="469.2" y2="60.19"/><line class="cls-24" x1="475.5" y1="62.95" x2="469.2" y2="60.19"/><line class="cls-24" x1="462.91" y1="64.05" x2="469.2" y2="61.78"/><line class="cls-24" x1="475.5" y1="64.54" x2="469.2" y2="61.78"/><line class="cls-24" x1="462.91" y1="65.64" x2="469.2" y2="63.37"/><line class="cls-24" x1="475.5" y1="66.13" x2="469.2" y2="63.37"/><line class="cls-24" x1="462.91" y1="67.23" x2="469.2" y2="64.97"/><line class="cls-24" x1="475.5" y1="67.72" x2="469.2" y2="64.97"/><line class="cls-24" x1="462.91" y1="68.82" x2="469.2" y2="66.56"/><line class="cls-24" x1="475.5" y1="69.32" x2="469.2" y2="66.56"/><line class="cls-24" x1="462.91" y1="70.42" x2="469.2" y2="68.15"/><line class="cls-24" x1="475.5" y1="70.91" x2="469.2" y2="68.15"/><line class="cls-24" x1="462.91" y1="72.01" x2="469.2" y2="69.74"/><line class="cls-24" x1="475.5" y1="72.5" x2="469.2" y2="69.74"/><line class="cls-24" x1="462.91" y1="73.6" x2="469.2" y2="71.34"/><line class="cls-24" x1="475.5" y1="74.1" x2="469.2" y2="71.34"/><line class="cls-24" x1="462.91" y1="75.2" x2="469.2" y2="72.93"/><line class="cls-24" x1="475.5" y1="75.69" x2="469.2" y2="72.93"/><line class="cls-24" x1="462.91" y1="76.79" x2="469.2" y2="74.52"/><line class="cls-24" x1="475.5" y1="77.28" x2="469.2" y2="74.52"/><line class="cls-24" x1="462.91" y1="78.38" x2="469.2" y2="76.12"/><line class="cls-24" x1="475.5" y1="78.88" x2="469.2" y2="76.12"/><line class="cls-24" x1="462.91" y1="79.98" x2="469.2" y2="77.71"/><line class="cls-24" x1="475.5" y1="80.47" x2="469.2" y2="77.71"/><line class="cls-24" x1="462.91" y1="81.57" x2="469.2" y2="79.3"/><line class="cls-24" x1="475.5" y1="82.06" x2="469.2" y2="79.3"/><line class="cls-24" x1="462.91" y1="83.16" x2="469.2" y2="80.9"/><line class="cls-24" x1="475.5" y1="83.65" x2="469.2" y2="80.9"/><line class="cls-24" x1="462.91" y1="84.75" x2="469.2" y2="82.49"/><line class="cls-24" x1="475.5" y1="85.25" x2="469.2" y2="82.49"/><line class="cls-24" x1="462.91" y1="86.35" x2="469.2" y2="84.08"/><line class="cls-24" x1="475.5" y1="86.84" x2="469.2" y2="84.08"/><line class="cls-24" x1="462.91" y1="87.94" x2="469.2" y2="85.67"/><line class="cls-24" x1="475.5" y1="88.43" x2="469.2" y2="85.67"/><line class="cls-24" x1="462.91" y1="89.53" x2="469.2" y2="87.27"/><line class="cls-24" x1="475.5" y1="90.03" x2="469.2" y2="87.27"/><line class="cls-24" x1="462.91" y1="91.13" x2="469.2" y2="88.86"/><line class="cls-24" x1="475.5" y1="91.62" x2="469.2" y2="88.86"/><line class="cls-24" x1="462.91" y1="92.72" x2="469.2" y2="90.45"/><line class="cls-24" x1="475.5" y1="93.21" x2="469.2" y2="90.45"/><line class="cls-24" x1="462.91" y1="94.31" x2="469.2" y2="92.05"/><line class="cls-24" x1="475.5" y1="94.81" x2="469.2" y2="92.05"/><line class="cls-24" x1="462.91" y1="95.91" x2="469.2" y2="93.64"/><line class="cls-24" x1="475.5" y1="96.4" x2="469.2" y2="93.64"/><line class="cls-24" x1="462.91" y1="97.5" x2="469.2" y2="95.23"/><line class="cls-24" x1="475.5" y1="97.99" x2="469.2" y2="95.23"/><line class="cls-24" x1="462.91" y1="99.09" x2="469.2" y2="96.83"/><line class="cls-24" x1="475.5" y1="99.58" x2="469.2" y2="96.83"/><line class="cls-24" x1="462.91" y1="100.68" x2="469.2" y2="98.42"/><line class="cls-24" x1="475.5" y1="101.18" x2="469.2" y2="98.42"/><line class="cls-24" x1="462.91" y1="102.28" x2="469.2" y2="100.01"/><line class="cls-24" x1="475.5" y1="102.77" x2="469.2" y2="100.01"/><line class="cls-24" x1="462.91" y1="103.87" x2="469.2" y2="101.6"/><line class="cls-24" x1="475.5" y1="104.36" x2="469.2" y2="101.6"/><line class="cls-24" x1="462.91" y1="105.46" x2="469.2" y2="103.2"/><line class="cls-24" x1="475.5" y1="105.96" x2="469.2" y2="103.2"/><line class="cls-24" x1="462.91" y1="107.06" x2="469.2" y2="104.79"/><line class="cls-24" x1="475.5" y1="107.55" x2="469.2" y2="104.79"/><line class="cls-24" x1="462.91" y1="108.65" x2="469.2" y2="106.38"/><line class="cls-24" x1="475.5" y1="109.14" x2="469.2" y2="106.38"/><line class="cls-24" x1="462.91" y1="110.44" x2="469.2" y2="108.17"/><line class="cls-24" x1="472.28" y1="109.52" x2="469.2" y2="108.17"/><line class="cls-24" x1="464.29" y1="56.62" x2="469.2" y2="54.82"/><line class="cls-24" x1="474.13" y1="57.17" x2="469.2" y2="54.82"/><line class="cls-24" x1="469.46" y1="54.91" x2="469.22" y2="109.99"/><line class="cls-24" x1="474.13" y1="57.17" x2="474.63" y2="109.14"/><line class="cls-24" x1="464.29" y1="56.62" x2="464.29" y2="110.33"/><polygon class="cls-22" points="462.91 110.84 477.06 108.94 477.06 111.94 462.91 114.22 462.91 110.84"/><polyline class="cls-22" points="462.91 111.35 459.65 112.24 459.65 114.33 462.91 113.76 462.91 114.05"/><line class="cls-22" x1="459.65" y1="106.8" x2="459.65" y2="113.18"/><line class="cls-22" x1="478.63" y1="107.76" x2="478.63" y2="114.14"/><line class="cls-22" x1="480.86" y1="116.74" x2="480.86" y2="119.06"/><line class="cls-22" x1="479.23" y1="118.61" x2="479.23" y2="121.87"/><line class="cls-22" x1="476.13" y1="112.36" x2="476.13" y2="113.48"/><polyline class="cls-22" points="480.86 116.74 477.28 115.24 473.14 116.4 464.29 116.74"/><polyline class="cls-22" points="464.7 119.06 473.14 118.72 477.28 117.56 480.86 119.06 479.5 119.39"/><polyline class="cls-22" points="478.63 115.55 478.63 113.86 476.13 113.48 476.13 115.55"/><line class="cls-22" x1="469.2" y1="113.55" x2="469.2" y2="116.37"/><line class="cls-22" x1="464.29" y1="114.37" x2="464.29" y2="116.74"/><line class="cls-22" x1="435.07" y1="155.71" x2="453.02" y2="138.75"/><line class="cls-22" x1="434.52" y1="162.94" x2="458.57" y2="140.82"/><line class="cls-22" x1="434.24" y1="170.16" x2="465.46" y2="142.57"/><line class="cls-22" x1="434.24" y1="177.99" x2="470.28" y2="146.7"/><line class="cls-22" x1="433.59" y1="187" x2="470.28" y2="155.15"/><line class="cls-22" x1="433.28" y1="195.13" x2="470.28" y2="164.18"/><line class="cls-22" x1="433.28" y1="203.01" x2="470.28" y2="172.87"/><line class="cls-22" x1="433.28" y1="211.14" x2="470.28" y2="181.01"/><line class="cls-22" x1="432.3" y1="220.63" x2="470.28" y2="190.24"/><line class="cls-22" x1="431.98" y1="228.86" x2="470.28" y2="199.63"/><line class="cls-22" x1="453.83" y1="221.02" x2="470.28" y2="208.47"/><polyline class="cls-22" points="431.98 237.69 447.28 226.02 452.93 225.65"/><line class="cls-22" x1="453.83" y1="230.71" x2="470.28" y2="218.16"/><polyline class="cls-22" points="431.98 246.85 447.28 235.17 452.93 234.8"/><line class="cls-22" x1="453.32" y1="240.95" x2="470.28" y2="228.01"/><polyline class="cls-22" points="430.93 256.02 447.28 245.03 452.93 244.66"/><line class="cls-22" x1="453.32" y1="250.42" x2="470.28" y2="237.48"/><polyline class="cls-22" points="430.58 265.18 446.64 254.53 452.93 254.12"/><line class="cls-22" x1="453.32" y1="259.95" x2="470.28" y2="248.24"/><polyline class="cls-22" points="430.22 274.48 446.41 264.09 452.93 263.66"/><line class="cls-22" x1="452.81" y1="269.71" x2="470.28" y2="258.55"/><polyline class="cls-22" points="429.85 284.24 446.41 273.85 452.43 273.7"/><line class="cls-22" x1="452.81" y1="279.73" x2="470.28" y2="269.07"/><polyline class="cls-22" points="429.85 294.26 445.93 283.87 452.43 283.72"/><line class="cls-22" x1="452.44" y1="290.35" x2="470.09" y2="279.93"/><polyline class="cls-22" points="429.09 303.89 445.67 294.45 451.93 294.26"/><line class="cls-22" x1="452.43" y1="300.98" x2="470.09" y2="290.97"/><polyline class="cls-22" points="428.75 314.51 445.67 304.77 451.93 304.58"/><line class="cls-22" x1="452.43" y1="312.06" x2="470.09" y2="302.05"/><polyline class="cls-22" points="428.29 324.55 445.15 315.67 451.93 315.2"/><line class="cls-22" x1="451.86" y1="322.91" x2="470.09" y2="313.62"/><polyline class="cls-22" points="427.89 334.97 444.7 326.54 451.57 326.25"/><line class="cls-22" x1="451.65" y1="334.3" x2="470.28" y2="325.14"/><polyline class="cls-22" points="427.47 345.87 444.62 337.47 451.33 337.27"/><line class="cls-22" x1="451.57" y1="345.59" x2="470.28" y2="336.79"/><polyline class="cls-22" points="427.06 356.75 444.35 348.84 451.33 348.6"/><line class="cls-22" x1="451.57" y1="357.24" x2="470.28" y2="348.44"/><polyline class="cls-22" points="426.63 367.82 444.07 360.25 451.19 359.89"/><line class="cls-22" x1="451.2" y1="369.27" x2="470.28" y2="361.73"/><polyline class="cls-22" points="426.19 379.04 443.78 372.21 450.77 371.87"/><line class="cls-22" x1="450.78" y1="381.13" x2="470.28" y2="374.12"/><polyline class="cls-22" points="425.75 390.6 443.36 384.06 450.36 383.72"/><line class="cls-22" x1="450.78" y1="393.42" x2="470.28" y2="387.04"/><polyline class="cls-22" points="425.3 402.39 443.36 396.35 450.36 396.01"/><line class="cls-22" x1="450.78" y1="406.21" x2="470.28" y2="399.83"/><polyline class="cls-22" points="424.83 414.56 443.05 408.54 450.04 408.2"/><line class="cls-22" x1="450.13" y1="419.37" x2="470.28" y2="413.53"/><polyline class="cls-22" points="424.36 426.7 443.05 421.49 450.04 421.15"/><line class="cls-22" x1="449.66" y1="445.85" x2="470.28" y2="441.42"/><polyline class="cls-22" points="423.39 451.94 441.94 447.73 449.35 447.37"/><line class="cls-22" x1="449.66" y1="459.68" x2="470.28" y2="455.25"/><polyline class="cls-22" points="423.39 465.77 441.94 461.56 449.35 461.2"/><line class="cls-22" x1="449.35" y1="473.41" x2="470.28" y2="470.31"/><line class="cls-22" x1="450.04" y1="432.47" x2="470.28" y2="427.25"/><polyline class="cls-22" points="423.88 439.22 442.26 434.31 449.48 434.21"/><line class="cls-22" x1="447.55" y1="217.14" x2="453.73" y2="218.53"/><polygon class="cls-25" points="458.93 176.15 464.07 171.71 464.35 173.72 458.93 178.26 458.93 176.15"/><line class="cls-22" x1="501.56" y1="139.65" x2="498.81" y2="136.61"/><line class="cls-22" x1="495.14" y1="137.55" x2="501.56" y2="144.66"/><line class="cls-22" x1="491.64" y1="138.75" x2="501.97" y2="150.19"/><line class="cls-22" x1="486.82" y1="139.93" x2="501.97" y2="157.36"/><line class="cls-22" x1="481.65" y1="141.11" x2="502.39" y2="164.43"/><line class="cls-22" x1="475.55" y1="142.67" x2="502.6" y2="171.71"/><line class="cls-22" x1="470.28" y1="144.66" x2="502.6" y2="180.02"/><path class="cls-22" d="M503.09,188.33l-31.32-33.67a3.2,3.2,0,0,0-1.49-.72"/><path class="cls-22" d="M503.3,195.8l-30.71-32.23a2.3,2.3,0,0,0-2.31-.32"/><polygon class="cls-25" points="478.14 172.24 482.23 176.54 482.23 177.99 478.14 173.84 478.14 172.24"/><polygon class="cls-25" points="495.28 190.42 499.37 194.72 499.37 196.18 495.28 192.02 495.28 190.42"/><path class="cls-22" d="M470.28,171.71s.77-.69,2,.53l31.31,32.64"/><path class="cls-22" d="M470.28,181.24a1.41,1.41,0,0,1,1.9.09c1.09.85,31.39,31.71,31.39,31.71"/><path class="cls-22" d="M470.28,190.28a1.43,1.43,0,0,1,1.9.09c1.09.86,31.87,30.95,31.87,30.95"/><path class="cls-22" d="M470.28,199.39a1.41,1.41,0,0,1,1.9.09c1.09.85,31.87,30.94,31.87,30.94"/><path class="cls-22" d="M470.28,208.43a1.43,1.43,0,0,1,1.9.09c1.09.86,14.84,14.33,14.84,14.33"/><polygon class="cls-25" points="478.23 198.82 484.27 204.55 483.92 205.43 483.78 208.09 477.24 201.89 477.44 201.08 476.8 200.47 478.23 198.82"/><polygon class="cls-25" points="493.93 214.25 499.98 219.98 499.62 220.86 499.48 223.52 492.94 217.32 493.15 216.5 492.51 215.9 493.93 214.25"/><line class="cls-26" x1="486.92" y1="213.71" x2="490.47" y2="539.24"/><line class="cls-26" x1="492.51" y1="219.15" x2="497.81" y2="528.85"/><polygon class="cls-25" points="478.12 207.7 477.17 209.6 477.64 210.49 477.17 211.15 483.42 217.14 483.97 213.71 478.12 207.7"/><polygon class="cls-25" points="494.5 223.52 499.98 228.01 499.17 228.01 499.17 231.67 493.63 226.71 493.63 224.13 494.5 223.52"/><polygon class="cls-25" points="477.17 218.53 477.73 216.19 479.05 218.53 485.24 223.16 483.44 224.07 477.17 218.53"/><polygon class="cls-25" points="493.63 233.49 494.27 231.67 495.16 233.14 500.94 238.03 498.75 238.66 493.63 233.49"/><polyline class="cls-22" points="504.05 238.66 492.13 227.22 487.12 227.08"/><path class="cls-22" d="M470.28,218.56a1.41,1.41,0,0,1,1.9.09c1.09.85,14.94,13.55,14.94,13.55"/><polyline class="cls-22" points="504.81 247.59 492.8 236.5 487.22 236.77"/><path class="cls-22" d="M470.28,228.23a1.41,1.41,0,0,1,1.9.09c1.09.85,15,12.63,15,12.63"/><polyline class="cls-22" points="504.81 256.72 492.84 245.95 487.27 245.99"/><path class="cls-22" d="M470.28,237.63a1.41,1.41,0,0,1,1.9.09c1.09.85,15,12.63,15,12.63"/><polyline class="cls-22" points="505.37 266.61 492.84 255.35 487.37 254.86"/><path class="cls-22" d="M470.28,248.18a1.43,1.43,0,0,1,1.9.09c1.09.86,15,12.64,15,12.64"/><polyline class="cls-22" points="505.63 275.67 492.84 265.18 487.47 264.13"/><path class="cls-22" d="M470.28,258.55a1.43,1.43,0,0,1,1.9.09c1.09.86,15.19,11.52,15.19,11.52"/><polyline class="cls-22" points="505.9 285.14 493.46 274.92 487.7 274.52"/><path class="cls-22" d="M470.28,268.88a1.41,1.41,0,0,1,1.9.09c1.09.85,15.19,11.7,15.19,11.7"/><polyline class="cls-22" points="505.9 295.47 493.46 285.25 487.7 284.84"/><path class="cls-22" d="M470.09,279.93a1.58,1.58,0,0,1,2.1-.2c1.09.85,15.51,11.24,15.51,11.24"/><polyline class="cls-22" points="506.4 304.54 493.81 295.47 487.81 295"/><path class="cls-22" d="M470,291a1.59,1.59,0,0,1,2.11-.19c1.08.85,15.75,10.59,15.75,10.59"/><polyline class="cls-22" points="506.77 314.75 493.98 305.36 487.93 305.6"/><path class="cls-22" d="M470,302.12a1.6,1.6,0,0,1,2.11-.2c1.08.86,15.75,10.6,15.75,10.6"/><polyline class="cls-22" points="507.07 325.14 493.98 316.24 488.41 316.46"/><path class="cls-22" d="M470,314a1.38,1.38,0,0,1,2.07-.53c1.16.78,16,10.08,16,10.08"/><polyline class="cls-22" points="507.38 335.75 494.35 327.05 488.16 326.82"/><path class="cls-22" d="M470.28,325.14a1.78,1.78,0,0,1,1.81-.16c1.23.69,16.07,9.58,16.07,9.58"/><polyline class="cls-22" points="507.69 346.43 494.55 338.27 488.41 337.74"/><path class="cls-22" d="M470.28,336.56a1.77,1.77,0,0,1,1.81-.17c1.23.69,16.07,9.58,16.07,9.58"/><polyline class="cls-22" points="508.01 357.24 494.55 349.68 488.41 349.16"/><path class="cls-22" d="M470.28,348.78a1.77,1.77,0,0,1,1.81-.17c1.23.7,16.32,8.63,16.32,8.63"/><polyline class="cls-22" points="508.31 367.82 494.93 360.63 488.7 360.63"/><path class="cls-22" d="M470.28,361.19a1.8,1.8,0,0,1,1.81-.17c1.23.7,16.32,8.63,16.32,8.63"/><polyline class="cls-22" points="508.64 379.04 494.93 373.05 488.7 373.05"/><path class="cls-22" d="M470.28,373.92a1.8,1.8,0,0,1,1.81-.17c1.23.7,16.32,7.8,16.32,7.8"/><polyline class="cls-22" points="508.99 390.98 495.33 384.27 488.78 384.27"/><path class="cls-22" d="M470.28,386.78a1.77,1.77,0,0,1,1.81-.17c1.23.7,16.8,7.33,16.8,7.33"/><polyline class="cls-22" points="509.32 402.39 495.54 396.52 489.25 396.52"/><polyline class="cls-22" points="509.66 414.13 495.54 408.79 489.25 408.79"/><line class="cls-22" x1="491.58" y1="218.53" x2="487.12" y2="219.47"/><path class="cls-22" d="M489,406.69,472.28,400a2.86,2.86,0,0,0-1.87.05"/><polyline class="cls-22" points="510.03 426.63 495.97 421.54 489.25 421.54"/><path class="cls-22" d="M489,419.37l-16.75-6a2.9,2.9,0,0,0-1.87,0"/><polyline class="cls-22" points="510.03 438.79 496.19 434.19 489.33 434.19"/><path class="cls-22" d="M489.25,432.47l-17-5.29a2.9,2.9,0,0,0-1.87,0"/><polyline class="cls-22" points="510.75 451.42 496.42 447.45 489.48 447.68"/><path class="cls-22" d="M489.25,445.85l-17-4.5a2.94,2.94,0,0,0-1.87,0"/><polyline class="cls-22" points="511.12 464.28 496.64 460.69 489.62 461.01"/><path class="cls-22" d="M489.47,459.41l-17.19-4.06a2.9,2.9,0,0,0-1.87,0"/><polyline class="cls-22" points="511.12 477.22 496.88 474.92 489.77 474.53"/><line class="cls-22" x1="489.62" y1="473.09" x2="470.28" y2="470.31"/><polyline class="cls-22" points="466.06 130.89 462.91 133.01 462.91 134.56"/><path class="cls-22" d="M476.28,131.4s-.78-.51-.73,3.15"/><line class="cls-22" x1="472.78" y1="133.06" x2="472.78" y2="134.9"/><polygon class="cls-22" points="484.54 125.64 479.77 123.23 459.07 123.61 453.85 126.89 453.85 125.53 459.07 122.25 479.77 121.87 484.54 124.28 484.54 125.64"/><polyline class="cls-22" points="459.65 123.82 459.65 126.28 454.52 128.93 454.52 126.48"/><polyline class="cls-22" points="454.52 128.93 460.69 128.76 463.77 127.49"/><polyline class="cls-22" points="459.65 126.28 463.77 127.49 463.77 125.59 460.2 123.82"/><ellipse class="cls-22" cx="457.51" cy="126.81" rx="0.5" ry="0.31" transform="translate(-14.44 75.22) rotate(-9.25)"/><ellipse class="cls-22" cx="481.49" cy="127.14" rx="0.31" ry="0.5" transform="translate(258.93 572.63) rotate(-78.25)"/><polyline class="cls-22" points="484.54 125.64 484.54 128.71 479.77 126.89 479.77 123.23 476.13 126.38 476.28 128.93"/><polyline class="cls-22" points="484.54 128.71 480.86 129.62 476.28 128.93 479.77 126.89"/><line class="cls-22" x1="453.85" y1="126.89" x2="453.85" y2="134.24"/><line class="cls-22" x1="484" y1="129.15" x2="484" y2="135.3"/><path class="cls-22" d="M489.85,135.5a8.72,8.72,0,0,1,2.64-1.27c1.65,0,2,1.43,2.65,1.46"/><path class="cls-22" d="M444.19,133.83a4.65,4.65,0,0,1,2.85-1.11,2.39,2.39,0,0,1,2.43,1.29"/><polyline class="cls-22" points="479.77 121.87 480.41 120.65 481.99 120.65 481.99 121.87 485.73 121.87 485.73 125.3 484.54 125.3"/><polyline class="cls-22" points="487.44 114.7 487.44 123.56 485.92 123.56"/><line class="cls-22" x1="453.85" y1="117.9" x2="453.85" y2="125.53"/><line class="cls-22" x1="453.81" y1="117.72" x2="451.03" y2="112.94"/><line class="cls-22" x1="444.78" y1="119.39" x2="453.75" y2="119.29"/><line class="cls-22" x1="453.75" y1="118.46" x2="450.64" y2="116.37"/><line class="cls-22" x1="444.78" y1="122.45" x2="453.75" y2="122.35"/><line class="cls-22" x1="454.09" y1="121.77" x2="458.15" y2="121.67"/><line class="cls-22" x1="458.15" y1="122.83" x2="458.15" y2="118.87"/><line class="cls-22" x1="457.49" y1="117.9" x2="453.85" y2="117.9"/><line class="cls-22" x1="452.26" y1="119.85" x2="452.26" y2="118.72"/><line class="cls-22" x1="450.8" y1="119.85" x2="450.8" y2="118.72"/><line class="cls-22" x1="449.34" y1="119.85" x2="449.34" y2="118.72"/><line class="cls-22" x1="456.5" y1="118.47" x2="456.5" y2="117.34"/><line class="cls-22" x1="455.04" y1="118.47" x2="455.04" y2="117.34"/><line class="cls-22" x1="456.5" y1="122.23" x2="456.5" y2="121.1"/><line class="cls-22" x1="455.04" y1="122.23" x2="455.04" y2="121.1"/><line class="cls-22" x1="453.32" y1="119.15" x2="453.75" y2="118.72"/><line class="cls-22" x1="452.21" y1="118.33" x2="453.07" y2="117.48"/><line class="cls-22" x1="451.1" y1="117.52" x2="451.96" y2="116.66"/><line class="cls-22" x1="452.26" y1="122.98" x2="452.26" y2="121.86"/><line class="cls-22" x1="450.8" y1="122.98" x2="450.8" y2="121.86"/><line class="cls-22" x1="449.34" y1="122.98" x2="449.34" y2="121.86"/><line class="cls-22" x1="452.87" y1="117.48" x2="454.05" y2="116.98"/><line class="cls-22" x1="452.23" y1="116.36" x2="453.4" y2="115.86"/><line class="cls-22" x1="451.58" y1="115.23" x2="452.76" y2="114.73"/><line class="cls-22" x1="450.93" y1="114.11" x2="452.11" y2="113.61"/><polygon class="cls-21" points="469.54 17.05 469.2 109.99 474.61 109.14 474.1 57.17 472.55 56.39 472.16 27 474.61 26.06 474.61 22.4 473.64 21.68 474.1 20.12 472.33 19.74 472.48 18.89 469.54 17.05"/><path class="cls-21" d="M469.34,109.93l-6.32.85v2.92l-2,.57a7.54,7.54,0,0,1,1.48,2.33c.91,2.73-3.52,2.7-4.22,2.06V120l.44,2.53-2.1,1.47a10.38,10.38,0,0,1-1.46,2c-.52.4,4-2.47,4-2.47l20.7-.38,4.53,2.06h1.43l-.23-3.52-3.52.1v-1.22h-1.58l-1.17,1.22v-2l1.63-1v-2.13l-2.23-.93v-2l-2.51-.38V112.3l.94-.42v-3Z"/><path class="cls-27" d="M460.57,123.71l18.88-.59-3.65,3.15.15,2.55,4.59.68,3.14-.78v6.46l-3.6-.12s1.19-1.17.21-2.11-1.84-2.17-2.65-2-1.47-.49-1.93.83a13.07,13.07,0,0,0-.54,3.09l-2.71-.06.11-1.9s2.09-1.33,1.74-2.11-.05-3.39-4.65-3.91-4.63,3.65-3.45,4.67l-1.08-.36-2.54,1.71v1.55l-9.06-.32.24-5.3,6.42-.1,3.05-1.48.1-1.82Z"/><line class="cls-22" x1="420.39" y1="522.04" x2="435.36" y2="133.6"/><polyline class="cls-22" points="422.05 480.82 439.89 476.77 448.66 476.2"/><line class="cls-22" x1="447.6" y1="217.19" x2="439.76" y2="539.28"/><line class="cls-22" x1="435.58" y1="137.82" x2="438.95" y2="134.79"/><line class="cls-22" x1="435.35" y1="143.71" x2="443.08" y2="136.16"/><line class="cls-22" x1="435.16" y1="148.78" x2="447.12" y2="137.47"/><path class="cls-28" d="M824.66,318.64a9.82,9.82,0,0,0,3.5-1.08c.38-.29-1-1.21-2.48-3.71a27.7,27.7,0,0,1-2.67-6.14c-1.34-4.11,4.31-5.61,9.08-6.13s6.67-.08,7.58.85a17.66,17.66,0,0,1,3.06,6.62c.24,1.89.22,4.59-2.08,5.44a55.92,55.92,0,0,1-8.72,2.54c-1.72.17-2,1.07-2.64,1.25s-3.28,1.52-4.24,1.35S824.66,318.64,824.66,318.64Z"/><path class="cls-29" d="M787,435.77a31.89,31.89,0,0,0-10.42,0c-6,.91-14.21,2.95-14.21,2.95s.82-25.36-6.19-31.34-8.86-8.5-12.34-8a38.89,38.89,0,0,1-7,.26s.43-16.43,13.9-19.39,23.11,8,25.61,12.52,13,27.22,13.61,32S787,435.77,787,435.77Z"/><path class="cls-30" d="M747.91,435.52c1.6,4.6,15,35.29,28.9,28.61,12.53-6,4.91-33,2.77-38.07S769.4,404.67,760,402.45s-14.72,4.62-14.88,13.85S746.31,430.92,747.91,435.52Z"/><path class="cls-31" d="M733.63,470a45,45,0,0,0,14,10.45c9.05,4.39,19.82-.43,27-4.75s11.8-7.28,12.52-23.23-6.15-32.88-10.84-41S757.83,390,749.55,392.68,725,403,725,403s-13.14,19.9-7.48,37.52C725,463.68,728.1,463.23,733.63,470Z"/><path class="cls-32" d="M779.91,427c6.75,17.25,5.29,33.94-3.26,37.29-9.55,3.74-21-7.91-27.72-25.16s-5.46-32.82,3.62-36.37C762,399.07,773.16,409.78,779.91,427Z"/><path class="cls-33" d="M746.28,409.75a29.47,29.47,0,0,1,7.8,8,21.16,21.16,0,0,1,3.33,8.51L756,428.08s-1.95-4.95-5.43-7.31-4.77-2.65-5.46-4.47S746.28,409.75,746.28,409.75Z"/><path class="cls-33" d="M756.12,428.69a16.94,16.94,0,0,0-2.47-4.92c-1.82-2.52-5.17-4.12-6.57-5.26s-1.94-1.68-1.94-1.68a33.33,33.33,0,0,0,.08,4.54c.21,2.9.52,5.48.52,5.48a.88.88,0,0,0,1,.22c.51-.23.74-1,2.81.34s4.13,3.76,4,5.26a6.85,6.85,0,0,1-1.19,3c-.14.15-.42.4-.31.63s.17.37.42.35a3.18,3.18,0,0,1,2.38,1.19c.92,1.1-.83,4.52-1.73,5.2a3.48,3.48,0,0,1-1.67.74,17.31,17.31,0,0,0,1.6,3.48l2.55,4.37a23.44,23.44,0,0,0,2.27-4.72c.44-1.73,1.7-6.63,1.53-7.9a6.33,6.33,0,0,0-.65-3c-.69-1.38-1.59-1.52-1.59-1.52s-.46-1.89.15-2.67S756.12,428.69,756.12,428.69Z"/><path class="cls-33" d="M759.07,441.46a4.51,4.51,0,0,1,1.47-.58,3.16,3.16,0,0,1,2.68,2.24,13.59,13.59,0,0,1,.18,6.68c-.45,1.74-2.24,8.54-2.24,8.54s-2-2.26-3-3.68a21.32,21.32,0,0,1-1.84-3.32,1,1,0,0,0,.67-.27,8.15,8.15,0,0,0,1.92-3.84c.25-1.67-.1-2.64-.48-3Z"/><path class="cls-34" d="M761.44,457.3s2.7,3,4.36,3.5,2.17-.37,3.56-.73,1.75-2.18,3.5-1.9,3.42-7.48,3.16-10.82-1-5,.3-6.31.44-3.4.17-4.92a5.8,5.8,0,0,1,.16-2.75s-2.56-7.75-3.28-8.38-1.88,1.05-2.64-.17-2-3.81-2.73-5,.28-3.16-4.44-7.8-6-4.59-8.37-4.92-7.09,4.05-7.39,3.82-1.52-1.13-1.52-1.13a11.82,11.82,0,0,1,8.16-7.52c6.49-1.71,13.57,4.17,18.56,11.67s9,17.44,9.83,24.18,1.33,12.77.55,15.9-3,9.22-6.57,10.15-8.38,1.14-12-2.32l-3.64-3.47Z"/><path class="cls-35" d="M752.26,408.46c-.3-.95.52-.76,1.48-1.63s2.17-.95,2.89-2.45A3.11,3.11,0,0,0,757,402a12.2,12.2,0,0,1,1.88.18l1.13.23a5,5,0,0,0,0,1.91,47.3,47.3,0,0,1,1.1,6.93c.11,2.49-.16,5.43-.27,7.6s-1.57,6.19-1.76,7.07-.61,1.87-1,1.56a3.85,3.85,0,0,1-.71-1.22,20.4,20.4,0,0,0-.93-3.64c-.71-2.06-.81-1.94-.81-1.94s1.87-.06,1.28-5.91-1.09-5.93-1.73-6.26-1.21,0-1.88.23S752.41,408.93,752.26,408.46Z"/><path class="cls-35" d="M762.67,404.13a7.51,7.51,0,0,1,1.85,1.24l.9.83s.85,7.33.82,10.53a30.84,30.84,0,0,1-1.54,8.76c-.62,1.61-1.68,4-1.68,4s-.55,1.12-.77.75-.08-.39-.57-.69-1.32-3.35-1.81-4.6.67-3.26,1.07-4.93.58-10.3.1-11.77-.63-1.12.43-2.14A3.86,3.86,0,0,0,762.67,404.13Z"/><path class="cls-36" d="M779.58,426.06c.55,1.5.93,2.6.93,2.6a14.59,14.59,0,0,0-2.67,1.44,13.63,13.63,0,0,1-2.52,1.39,4.78,4.78,0,0,0-3.88-.37c-2.53.64-4.63,1.37-5,2s-1.25-.79-2.21-1-1.16-1.74-1.16-1.74l.58-.94,10.76-4.21,4.22-1.19A12.36,12.36,0,0,1,779.58,426.06Z"/><path class="cls-36" d="M766,438c.19.53,3,2.49,5.27,4.61s6.05,7.57,6.74,9.59,2.55,5.47,3,5.68l1.05.46a13,13,0,0,1-1.69,2.87c-.52.32-1.58-2.58-3.94-2.66a19,19,0,0,1-3.61-.41s-2.62-8.29-5.33-10.87-2.44-3-1.43-3.66-1-3.51-1.13-4.15S766,438,766,438Z"/><path class="cls-36" d="M777.58,439.71a26.11,26.11,0,0,1,3.25-1.27c.55-.05,2-.36,2-.36s-.27-1.5-.5-2.55l-.51-2.19a11,11,0,0,0-3.22.39c-1.76.47-3.49,1.49-4.55,1.51s-7.72,1.15-8.15,1.07a6.94,6.94,0,0,0-1.09-.07,1.48,1.48,0,0,0-.8,1.06c0,.67-.13,1.21.21,1.44s.52.42.93.15.46-.82,1-.64a5.2,5.2,0,0,0,2.66.72c2,.16,3.38-.64,5.59-.23S776.76,439.79,777.58,439.71Z"/><path class="cls-37" d="M602.52,458.63c-23.6,4.45-32.81,19.54-34.51,26.32s4.38,22,4.38,22,4.24,8.29,12.2,13.13,15.61,7.12,21.83,5.05c9.54-3.16,18.48-5.93,25-11.62s10.59-17.38,8.85-26.66S626.12,454.19,602.52,458.63Zm28.19,33.93c-1.28,7.36-4.4,12.34-9.23,15s-8.62,1.16-14.87-1.77-9.91-9.66-11.72-15.91c-2.68-9.26.49-14.69,4.7-18.43s11.33-4.39,18.25-.71S632,485.21,630.71,492.56Z"/><path class="cls-38" d="M758,426.16c-2.78,1.08-3.52,5.81-1.66,10.55s5.61,7.71,8.38,6.62,3.51-5.81,1.66-10.55S760.8,425.07,758,426.16Zm4.6,11.29c-1,.4-2.4-.7-3.08-2.45s-.42-3.5.59-3.9,2.4.7,3.09,2.46S763.65,437.05,762.63,437.45Z"/><path class="cls-30" d="M867.18,342.08c3.66-.72,11.07,1.19,16.48,10.31A30.83,30.83,0,0,1,888,373.18c-.56,4.12-3.09,10.62-6.7,13.55s-10.71,3.87-14.64,1.84-14.85-15.27-14.17-27.33S857.65,344,867.18,342.08Z"/><ellipse class="cls-39" cx="867.54" cy="365.26" rx="21.51" ry="25.9" transform="translate(-73.46 341.47) rotate(-21.38)"/><path class="cls-40" d="M864,345.36c.78.56,1.34-1.62,4.17-1.63s4.28,1.08,4.92.91,5,1.38,6.29,2.83a32.15,32.15,0,0,1,4.43,8.07c1.23,3.14,2.6,7.64,2.3,10.67s-.13,4.7-1.2,7.08-2.54,5.88-5.78,7.06-7.57.29-7.88-.37-2.23-1.14-3-.86-1.18,3.78-1.18,3.78c.07-1,9.22,8.25,18.35.33,4-3.47,5.25-8.19,5.8-12.67a36.56,36.56,0,0,0-4.31-21.11c-3.5-5.87-9.43-10.92-14.44-11.16a15.59,15.59,0,0,0-8.19,2,11.48,11.48,0,0,0-4,3.24Z"/><path class="cls-33" d="M871.13,357.35c.37.33,1.32-.43,2.46-2.14a67.33,67.33,0,0,0,5.19-9.8,37.72,37.72,0,0,0,1.16-4.1s-.41-.27-1.46-.89c-.71-.42-4.18,3.37-4.18,3.37a10.9,10.9,0,0,1-.23,5.41c-.43,1.54-2.15,7.38-2.85,7.22S871.13,357.35,871.13,357.35Z"/><path class="cls-33" d="M880,345.86l2.38-2.6s.84.88,1.27,1.35a16.81,16.81,0,0,1,1.08,1.48l-1.85,3.55a65.85,65.85,0,0,1-3.59,6.17c-.77,1.12-4,4.61-4,4.61l-.52-.83a31.21,31.21,0,0,0,3.13-6.26c.68-2.45,1.53-5.86,1.53-5.86Z"/><path class="cls-33" d="M877.64,385.78a27.22,27.22,0,0,1-.87-3.36,26.38,26.38,0,0,0,0-4.82c-.24-2.91-1.32-5-2.16-5.52s-1.72-.88-1.43-2,.33-.58.64-1.52-.7-1.65-.14-2.32.35-1,1.89-.74,6.09,1.35,7.53,1.33,4.94.87,6.69,1,1.67.54,1.67.54a13.73,13.73,0,0,1-.16,1.62c-.14.87-.07,1-.26,1.82-.06.29-4.91,0-4.91,0a36.62,36.62,0,0,0-6.93-3.28c-3.31-1.05-3.27-1.35-3.27-1.35a18.75,18.75,0,0,1,3,5.45c1.29,3.52,3.78,12.46,3.78,12.46S878.24,387.35,877.64,385.78Z"/><path class="cls-33" d="M891.34,363.24c0-.47-.22-1.74-.22-1.74L887,361c-1.74-.22-10.44-.84-11-.59a3.11,3.11,0,0,0-1.25.94c-.07.22-.18.59.28.72s.53-.17,1,.59.55,1.1,1.35,1.05a8.86,8.86,0,0,1,4.1-.21,21,21,0,0,1,5.61,1.75,7.44,7.44,0,0,0,2.26.21c.62-.06,2-.05,2-.05S891.38,363.72,891.34,363.24Z"/><path class="cls-33" d="M867.79,348a75.62,75.62,0,0,1,3,6.94,6.85,6.85,0,0,1-.3,2.47,8.06,8.06,0,0,0-1.93-.36c-1-.05-2.36-1.56-2.36-1.56a4.11,4.11,0,0,0-.1-2.86,10.6,10.6,0,0,0-2.43-3.6l-2.64-1.32s-1.64-2.95-.77-4.23a8.33,8.33,0,0,1,3-2.57A40.33,40.33,0,0,1,867.79,348Z"/><path class="cls-33" d="M873.56,385.89c-.08,0,2.65-2.82-.48-4.44-.25-.12-.08-.75-.08-.75s.64-.35.48-1.59c-.49-3.59-.89-6.82-1.69-8.47s-2.1-3.83-2.1-3.83l.71.24s2-.4,3.47,2.56,1.13,6.94,2.24,8.86a19.15,19.15,0,0,1,2.47,7.9A13.91,13.91,0,0,1,873.56,385.89Z"/><path class="cls-41" d="M870.23,356c-2.78,1.09-4,4.6-2.74,7.84s4.56,5,7.34,3.9,4-4.6,2.74-7.84S873,354.9,870.23,356Zm2.95,7.52a1.83,1.83,0,0,1-1.29-3.3,1.83,1.83,0,0,1,1.29,3.3Z"/><path class="cls-33" d="M861.64,353.13s.25-.73,1.19-.23,1.73.4,2.52,1.9a17,17,0,0,0,2.55,3,6.4,6.4,0,0,0-.62,1.15c-.16.46-.11,1.23-.3,1s-.63.12-.85-.14.12-.44-.29-1.17-1.45-1.92-2.24-2a2.83,2.83,0,0,1-1.63-1C862,355.53,861.64,353.13,861.64,353.13Z"/><path class="cls-33" d="M865.23,362.59l2.08.8a12,12,0,0,0,.75,2.41,13.17,13.17,0,0,0,.83,1.27,10.46,10.46,0,0,1-.78,1.49c-.35.73-1.92-3.19-2.3-4.12A12.25,12.25,0,0,1,865.23,362.59Z"/><path class="cls-31" d="M885.16,339.47c-10.25-10.69-18.6-9.13-27.45-5.74-4.38,1.67-8.16,5.41-11.85,17.24s3.72,28.83,3.72,31.32a15.28,15.28,0,0,0,4.11,10.5c3.4,3.43,10,3.89,11.92,4.2s18.62-6.32,22.32-8.74,6.78-12,7.79-18.08S895.41,350.17,885.16,339.47Zm-3.63,46.3c-8.59,3.36-19-4.59-24.34-18.15s.58-25,9.16-28.33,17.53,1.5,22.85,15.07S890.12,382.41,881.53,385.77Z"/><path class="cls-42" d="M617.44,504.82c3.13-2.09,2.76-7.43,1.77-9.86s-1.1-6.34-.07-6.81,15-3.83,15-3.83-1.12,5.56-2.35,9.78c-1.37,4.69-2.93,8.17-4.58,10.07-3.13,3.6-7.71,5-10.43,4.36a29.58,29.58,0,0,1-5.41-1.87A10.37,10.37,0,0,0,617.44,504.82Z"/><path class="cls-43" d="M602.14,502.66s10.52,9.85,20.75,4.85c6-2.91,8.87-9.61,10.12-17.4,0,0-15.54-6.37-20-4.11S602.14,502.66,602.14,502.66Z"/><path class="cls-44" d="M785.8,437.59a2.51,2.51,0,0,0,2.42-.95,173.77,173.77,0,0,1,33.1-25.25C840.57,400,845.83,395,852.19,391.17s6.42-3.24,8.79-3.09,7.79-2,8.56-3.35c0,0,3.1-2.05-1.49-13.75s-9.83-39-.28-44.39c5-2.82,7.06,2.8,11.53,7.63,1.75,1.89,3.1,1.78,4,3.4.19.35,1.14,1-3.2-6.71-3.82-6.79-9.65-12.91-14.63-13.71C858,316,854,316.06,849.63,314.71s-22.19,3.74-22.19,3.74-36.7-19.36-60.33-21.1-32.85,5.22-32.85,5.22-38,12-66.79,26.24-45.09,22-54.12,28.16S577,393,569,404c0,0-13.18,9-17.65,12.81s-2.82,1.75-5.77,3.82-14.26,13-12.16,30.59c.71,4.13,2.68,4.14,2.68,4.14a2.38,2.38,0,0,0-1.87,1.7c-.45,1.53,4.15,27.62,4.92,30.78s9.74,13.61,11.91,17.13,7.56,6.84,9.71,7.35-.4-1,5-2.56,4.54-1.48,4.54-1.48-3.81-2.42-1.37-5,13.92,1.32,13.92,1.32L651.27,484l52.25-15.34s10.57-2.21,14.29-1.18,13.68-1.76,18.14-3.78,7.43-3.92,7.59-5.64-3.21-18.46-4.48-21-11.62-41.37,10.73-47.08,35.05,27.77,35.05,27.77-4.66,2.93-4.38,3.65a62.46,62.46,0,0,1,2.68,7.17C784,431.65,786.25,437.21,785.8,437.59Z"/><path class="cls-45" d="M785.8,437.59a2.51,2.51,0,0,0,2.42-.95,173.77,173.77,0,0,1,33.1-25.25C840.57,400,845.83,395,852.19,391.17s6.42-3.24,8.79-3.09,7.79-2,8.56-3.35c0,0,3.1-2.05-1.49-13.75s-9.83-39-.28-44.39c5-2.82,7.06,2.8,11.53,7.63,1.75,1.89,3.12,2.2,4,3.33.26.32-1.06-1.76-3.86-6.13-4.19-6.57-8.43-12.53-13.41-13.32-7.44-1.19-13.1-1.57-17-2.77-3.57-1.1-21.74,3.9-21.74,3.9s-38.63-19.9-59.5-21.26c-23.64-1.54-33.07,5.1-33.07,5.1-6.68,3.28-27.37,21.3-23.7,44.88,1.94,12.44-8.86,24.8-8.94,34.76-.22,26.51,5.68,47.26,11.5,64.74,1.18,3.52,18.48,16.79,19.73,16.5,2.39-.56,9.49-3.84,9.64-5.56s-2.68-18.84-4-21.39-11.62-41.37,10.73-47.08,35.05,27.77,35.05,27.77-4.66,2.93-4.38,3.65a62.46,62.46,0,0,1,2.68,7.17C784,431.65,786.25,437.21,785.8,437.59Z"/><path class="cls-46" d="M719.67,335c-.94-4.2,17.26-21.07,17.26-21.07s23.79-16.57,52.14-5.07,36.15,15.5,36.15,15.5L769.17,338s-30.72,8.92-33.55,8.58-7.39-3.05-9.44-4.12S720.62,339.19,719.67,335Z"/><path class="cls-47" d="M736.93,313.92s10.74,6.25,16.91,10.86S769.17,338,769.17,338"/><path class="cls-22" d="M770.31,337.73c.94,1,9.36,6.28,12.16,10.69s12.19,22.07,17.86,33.36,9.4,25.16,10.27,26.23,1.2,1.57,2.13,1.42,42.43-24.74,42.43-24.74a5.71,5.71,0,0,0,2-4.15c0-2.59-1.83-22.18-5.84-31.09s-6.34-14.21-12.5-19a33.6,33.6,0,0,0-13.6-6.06Z"/><path class="cls-47" d="M786.55,421.56s5.26-3.53,8.81-5.33,15.46-8,15.46-8"/><path class="cls-47" d="M711.83,369c4.33-2.46,11.24.22,14.38,4.83,2.78,4.08,5,9.83-.75,13.48-4.17,2.65-10.73,1.93-14.36-4C706.67,376.09,707,371.77,711.83,369Z"/><path class="cls-48" d="M622.11,430.77c.1.51,67.07-29,67.07-29s-.63-10.17-1.07-13.27-.56-8.91-1.84-12.19-2-4.58-3.49-4.5-7,2.22-11.92,5.19-13.27,11.4-16.38,15.54-6,8.74-10.12,11.77-14.35,9.09-16.94,11.05S621.34,427.06,622.11,430.77Z"/><path class="cls-48" d="M542.84,427.34s1.35,8.68,5.14,12.72,9.4.3,11.57,1.88,4.4,5,5.31,6.22a15.63,15.63,0,0,0,3.36,2.66s-26.13,8-27.58,8-3.35-.49-3.6-4.35c-.14-2.23-1.81-6.59.32-15.53C538.38,434.66,540.89,429.36,542.84,427.34Z"/><path class="cls-49" d="M682.89,356a64.47,64.47,0,0,1-7.62,5.4c-2.52,1.26-94.41,38.7-94.41,38.7.29,0,11-14,16.79-20.09,5-5.33,15.27-16.94,21-19.27s29-14.72,43.29-20.81,45.81-19.68,45.81-19.68-7.73,13.79-14.27,23.45S682.89,356,682.89,356"/><path class="cls-24" d="M591.34,483.58c.85-.34,27.88-8.31,30.15-9.2s1.45-2.53,2.1-2.13,6.14,22.36,6.14,22.36l-33.49,10.21Z"/><path class="cls-50" d="M825.52,306.87c.65-2.31,11.51-3.39,12.28-3.09s2.1,3,2.25,4.55.38,2.93-1.53,3.8-7.25,3.09-8.74,2.91S825.09,308.41,825.52,306.87Z"/><path class="cls-22" d="M567.39,451.08s12.49-4.09,22.48-7.77S622.2,431,622.2,431"/><path class="cls-51" d="M687.4,351.67a8.45,8.45,0,0,1,7.84.52c4.13,2.46,2.62,10.18-4.45,14-4.91,2.64-3.74,11.28-3.74,11.28s2.05,21.53,2.13,24.27"/><path class="cls-47" d="M785.61,419.17a42.2,42.2,0,0,1,2.23,10.94,12.14,12.14,0,0,1-1,3.85"/><path class="cls-45" d="M629.39,490.1,652,483.24s43.54-12.86,49.23-14.56c4.3-1.29,11.84-2.85,15.09-2s7.61-.14,10.7-.89c2.27-.54,6-1.81,6-1.81s-17.76-12.09-19.42-16.52-89.3,24.7-89.3,24.7Z"/><path class="cls-45" d="M590.56,483.48c.05.79,3.83,16.63,3.83,16.63l-11.59,3.74s-11.37-3.69-14.14-1.38.14,5.58.14,5.58-1.86.51-3.53,1A10,10,0,0,0,563,510c-1.26.73-1.16,1.34-1.74,1.63s-5.8-2.11-8.88-6.11a79.58,79.58,0,0,1-5.48-7.54S590.54,483.17,590.56,483.48Z"/><path class="cls-52" d="M785.8,437.59a2.51,2.51,0,0,0,2.42-.95,173.77,173.77,0,0,1,33.1-25.25C840.57,400,845.83,395,852.19,391.17s6.42-3.24,8.79-3.09,7.79-2,8.56-3.35c0,0,3.1-2.05-1.49-13.75s-9.83-39-.28-44.39c5-2.82,7.06,2.8,11.53,7.63,1.75,1.89,3.1,1.78,4,3.4.19.35,1.14,1-3.2-6.71-3.82-6.79-9.65-12.91-14.63-13.71C858,316,854,316.06,849.63,314.71s-22.19,3.74-22.19,3.74-36.7-19.36-60.33-21.1-32.85,5.22-32.85,5.22-38,12-66.79,26.24-45.09,22-54.12,28.16S577,393,569,404c0,0-13.18,9-17.65,12.81s-2.82,1.75-5.77,3.82-14.26,13-12.16,30.59c.71,4.13,2.68,4.14,2.68,4.14a2.38,2.38,0,0,0-1.87,1.7c-.45,1.53,4.15,27.62,4.92,30.78s9.74,13.61,11.91,17.13,7.56,6.84,9.71,7.35-.4-1,5-2.56,4.54-1.48,4.54-1.48-3.81-2.42-1.37-5,13.92,1.32,13.92,1.32L651.27,484l52.25-15.34s10.57-2.21,14.29-1.18,13.68-1.76,18.14-3.78,7.43-3.92,7.59-5.64-3.21-18.46-4.48-21-11.62-41.37,10.73-47.08,35.05,27.77,35.05,27.77-4.66,2.93-4.38,3.65a62.46,62.46,0,0,1,2.68,7.17C784,431.65,786.25,437.21,785.8,437.59Z"/><g class="cls-3"><path class="cls-53" d="M850.82,509s-64.53-11.81-227.4-23.87c-35.2-2.6-242.27-18.44-242.27-18.44l-.21-7.74,2-.85.56-23L382,435v-6.37l1.55.09v-23l-1.55-.09.28-7.67,1.27.08V376.72l-1.55-.11V368.9l2.32-.47V345.54l-163.37-9.89H187.49V290s-1.64-5.68-16.37-9.07-59.68-13.3-113-9.81c0,0-36.14,1.53-43.06,12.06l-.53,45.23s-10.19,6.94-11.37,9.46-4.06,3.76-.95,8l10,7.78L-.13,364.75s-.64,2.56,2.31,5.51,8.29,8,8.29,8L-.34,388.82s-4.57,1,5.3,9l5,4L-1,413.38s-1.95,2.34,3.92,7.76c5,4.59,5.72,4.56,5.84,4.45L3.65,435.1s-84.46,2.57-87.79,11.27A45.36,45.36,0,0,1-86.53,452L-70,468.33s.43-.26,1.33-.72L-30.13,514S-7.28,537.7-7,538.33a7.64,7.64,0,0,0,2.55,1.1l-5.88,1.07,4.57,23,3.32,0-.44,136.09H854ZM2.39,507.16l-15.65-24.82,19.5-1.06.18,1.06-9.29,9.77s-4.26,0,4.22,9.06l4.1,5.08Zm3.38-52.34a10,10,0,0,1-6.45,6c-5.28,1.84-4.44,5.84,5,9.42l.12.69-15.71,6.72L-16,479.07l-13.14-22.28A309.84,309.84,0,0,1,5.77,454.82Zm-66,9.23c3.41-1.25,7.76-2.67,13.23-4.14a105.6,105.6,0,0,1,12.28-2.37l14.27,22.28s-24.58,3.33-25.55,3.59C-46.79,483.61-56.18,470-60.26,464.05Zm18,24.28c.33-1.87,19.43-4.63,23.84-5.24l16,25s.92,1.89-4.43,1.13c-3.16-.45-10.74,1.3-16.41,2.81ZM.82,538.46l-.32-.13C-4,536.65-19,516.73-19,516.73c.81-2,20.15-3.33,20.15-3.33l1.14.37c-1.34,2.6-2.93,5-4.44,5.46,0,0-11.07,4.86-.68,11.1l8.64,7.23Z"/><path class="cls-54" d="M176.06,511.19c2.47.07,7.16,1.44,14.82,1.68l-11.11-6.5Z"/><path class="cls-54" d="M199.83,501.24l15.86.69-8.64,11.44-7.16-.22-19.17-8.4,9.86-1.53Z"/><path class="cls-54" d="M222.16,502.21c23.13,1,52.32,2.29,81.08,3.57.53,0,.28,3.89.8,3.92.86,0,2.08-.25,2.94-.21.42,0,0-3.51.43-3.49,6.25.28,13.73.58,19.85.86.42,0,.63,2.4,1.05,2.42s1.33-2.31,1.89-2.29l.76,0c40.6,1.84,75.81,3.5,85.44,4.16,18.87,1.28,237.43,17.51,357.25,26.41,1.24.09-.16,5.7,1.06,5.8,6.18.45,15.86.74,21.43,1.15.53,0-.1-5.29.42-5.25l54.55,4.06v11.48s-369.84-29.66-422.5-33.05c-15-1-42.07-3.39-73.18-5.35,0,0,.1-1-.5-1.24-.85-.35-2.55,0-3.27-.05-.28,0-.48,1-.76,1-9.72-.59-19.78-1.12-30-1.55,0,0,.32-1.48-.27-2.07s-2.08-.29-2.7-.32c-.86,0-2.91.93-3.77.9s-1.07,1.18-1.84,1.16c-1.07,0-5.57,0-6.64-.06-1.5-.05.16,2.42-1.33,2.37-32.89-1.15-65.54-2.21-90-3"/><path class="cls-54" d="M189,546.85s62.06.44,168.4,4.28c1,0-.27,1.46.77,1.5,7.42.27,17.37-.83,25.2-.53C484,556,618.31,562.79,774,574.52c.84.06-.63,6,.22,6.1,6.28.48,16.55-.38,22.9.11.7,0-.23-4.46.47-4.41,18,1.4,35.37,2.86,53.9,4.39l.23,9.48C836,587.6,585.19,574.4,544.45,573.06c-42.94-1.41-356.26-13.31-356.26-13.31"/><polygon class="cls-54" points="181.63 592.49 503.59 604.09 503.59 639.09 181.63 639.28 181.63 592.49"/><path class="cls-55" d="M13.73,328.54c3.27-1.54,14.58-9.32,76.59-8.41,59.68.87,86,11.15,86,11.15S183.65,333,185,335s12,10,12,10,3.42,1.87-4.74,8l-6.6,5.46,11.66,12a4.88,4.88,0,0,1-2.2,4.29l-10.45,7.76s11.08,10.78,10.75,11.3c-1.42,2.2-10.87,12-10.87,12s8.66,11,8.55,12.12-2.44,3.76-2.44,3.76l-19,87.66L190,524.38s1.93,1.4-3.87,7.27-14.54,13.44-14.54,13.44L6.37,538.46l-12.74-11s-2.13-3.63,1.2-5.76S8.48,508.65,8.48,508.65l-11-11.43s-5.23-2.41,2.58-9.07S9.6,480,9.6,480L-.55,479l6-8-8.55-3.91s-3.68-2.94,2.27-6.48,6-2.75,6.28-4.72S3.35,435,3.35,435l5.34-8.54-10.31-10s0-4.54,1.81-5.18c.81-.29,9.15-9,9.15-9L-1,392.53v-3.3l11.16-11s-4.65-5-5.18-5.55-7.15-5.27-6-7.73,12.64-10.94,12.64-10.94L4.3,348.27S-3.13,344.9,2.36,338,10.46,330.09,13.73,328.54Z"/><path class="cls-56" d="M128.75,443.71s-5.63-4.09-4.37-15.93,12.34-22.73,18.63-25.5,16.55-8,30.32-.38,20.47,21.94,18.6,31.6A97.66,97.66,0,0,1,187.77,449Z"/><polygon class="cls-57" points="810.66 572.08 787.77 570.8 787.77 547.76 810.66 549.19 810.66 572.08"/><polygon class="cls-57" points="811.73 608.67 787.77 608.67 787.77 584.73 810.66 586.16 811.73 608.67"/><polygon class="cls-57" points="811.73 649.11 789.48 648.25 789.48 622.15 811.73 624.08 811.73 649.11"/><polygon class="cls-55" points="-3.43 554.84 181.63 561.26 181.63 698.4 -3.43 698.4 -3.43 554.84"/><polygon class="cls-58" points="300.14 471.96 335.8 473.08 335.8 506.78 300.14 505.8 300.14 471.96"/><path class="cls-59" d="M305,516.26v-2h7.86s.21-1.12,1.9-1.33.35-1.47,5.75-.56c0,0,.78.58,0,1.8h1.76v2.62h1.12v-1.68s3.09-.07,3.3.42a16.7,16.7,0,0,1,3.51-.14c.77.21,2-.07,2.74.35s7.51,0,7.51,0l1.13,1.12h4.95l1.57,1.2,3.44-2.67h3.94v1.54h8.77v1.41a4.18,4.18,0,0,1,1.62-.85c.91-.21,6.74,0,6.74,0s1.89,1.06,2,1.83,1.05-1.33,1.05-1.33h3.8v2.1a9.82,9.82,0,0,1,6.38-1.75c4.15.14,6.39,2,6,6.67s-5.05,5-7.23,5-2.81-.77-4.35-1.33H340.77a8.12,8.12,0,0,0-1.33-.63c-.49-.15-6.46,0-6.46,0s-.63-.85-.91-.57a5.14,5.14,0,0,1-1.2.64l-14.95-.57s-1.26-1.19-1.12-1.82a.68.68,0,0,0-.85-.77c-.21.14-.07,2.17-1,2.17H301.53s-.49-5.65,0-6.09a8.25,8.25,0,0,0,1.68-1.84C303.28,518.79,303.77,516.33,305,516.26Z"/><rect class="cls-60" x="300.14" y="536.69" width="34.96" height="13.34"/><polygon class="cls-61" points="357.43 538.94 391.95 539.64 391.95 552.56 357.43 552.56 357.43 538.94"/><polygon class="cls-57" points="497 576.15 553.72 579.24 560.74 628.1 515.25 628.1 497 576.15"/><polygon class="cls-57" points="564.95 577.45 719.12 584.29 724.46 597.21 571.41 592.15 564.95 577.45"/><polygon class="cls-55" points="219.41 357.37 219.41 364.72 381.44 376.38 380.99 368.9 219.41 357.37"/><polygon class="cls-55" points="218.36 388.52 218.36 396.77 380.99 405.69 381.27 398.02 218.36 388.52"/><polygon class="cls-55" points="221.24 419.72 381.44 428.42 381.44 434.78 223.56 426.08 221.24 419.72"/><polygon class="cls-55" points="267.85 452.58 380.6 458.2 380.6 466.44 267.85 458.7 267.85 452.58"/><path class="cls-62" d="M147.48,504.39c-46.58-3.78-56.93-13.18-78.64-21.65-14.7-5.74-43.62-28-43.62-28S7.13,455.59-19.7,456a125.63,125.63,0,0,0-50.25,11.4l-1.15.89-16.85-17.57,2.63-5c8.43-7.38,71.62-10.23,71.62-10.23L23,434.41l2.74-.91,241.5,19.1.53,15.34,0,1.16c2.35-1.25-12.84,10-29.25,18.54-10.54,5.46-23,9.1-35.84,13S171.76,506.35,147.48,504.39Z"/><path class="cls-62" d="M-35.36,457.43l5.25-.95s46.34,77.92,54.62,80l-7.86.28Z"/><path class="cls-62" d="M42.4,462.54s16.87,71.58,21.89,73.92-5.24,0-5.24,0-10.94-26.84-20.82-73.77C37.28,458.18,42.4,462.54,42.4,462.54Z"/><path class="cls-62" d="M108.63,495.34l8.59.38s-1.49,39.44-4.48,42.38l-4-.28S114.82,514.5,108.63,495.34Z"/><polygon class="cls-62" points="180.1 504.51 157.38 540.95 152.65 540.95 171.93 505.18 180.1 504.51"/><path class="cls-62" d="M219.37,495.46l8.83-3.17s-21.36,35.89-41.37,50.5l-13-.88s17.18-12.21,20-14.77C206.84,515.35,213.81,504.41,219.37,495.46Z"/><polygon class="cls-62" points="-13.82 478.28 20.86 463.44 23.6 467.41 2.54 478.15 -13.82 478.28"/><polygon class="cls-62" points="2.13 507.35 20.53 499.65 22.13 499.27 22.81 501.64 11.18 507.95 1.75 508.27 2.13 507.35"/><polygon class="cls-62" points="53.47 503.72 61.51 497.17 62.92 497.75 63.2 500.06 57.04 507.35 54.48 507.35 53.47 503.72"/><polygon class="cls-62" points="179.08 505.49 182.21 505.4 203.37 514.57 197.83 514.57 189.78 512.83 179.08 505.49"/><path class="cls-62" d="M176.49,511.19l30.85,5.51a10.38,10.38,0,0,1-4,1.95c-1.73.18-29.56-3.73-29.56-3.73Z"/><polygon class="cls-62" points="156.09 504.94 162.89 505.18 168.5 509.69 158.87 509.64 156.09 504.94"/><path class="cls-62" d="M168.81,510.43l-2.21,3.85s-46.8-2.54-49.39-1.92v-4.74Z"/><path class="cls-62" d="M110.07,507.66s1.65.69.93,4.69L55.82,512l-1.34-4.66Z"/><path class="cls-62" d="M66.41,481.7s-77.21-1.41-81.27.46l-3.43-3.09s63.65-2.58,75.37-1.66Z"/><polygon class="cls-62" points="1.75 508.27 48.64 507.35 49.93 511.62 3.74 512.94 1.75 508.27"/><path class="cls-62" d="M-11.32,540.5s16.91-4.6,60-3.76,140.29,6.62,140.29,6.62l-2.24,24.92s-84.52-5.62-89.1-5.74-48.95-.29-48.95-.29l-55.26,1.32Z"/><path class="cls-62" d="M-30.11,456.48H4a4.27,4.27,0,0,1-1.87,2.16c-1.42.82-5.53,3-5.53,3L-54.08,461S-34.15,456.48-30.11,456.48Z"/><path class="cls-62" d="M-60.1,463.76s35.77,7.64,57.94,4.48l5.53,2-16,7A146.42,146.42,0,0,1-27.3,478c-5.19-.21-23.72-1-25.27-2.6s-9.09-11.88-9.09-11.88Z"/><path class="cls-63" d="M14.45,283.11s13-10,28.08-11.09,52.61-1.51,52.61-1.51S167,274.82,184.3,286.4c0,0,2.84.58,2.84,13.6v35.5l-1.19.26s-16.27-7.5-29.45-9.68C144,324,127.43,318.58,74.08,320S14,328,14,328Z"/><path class="cls-64" d="M176.58,392.21s36.13,7.23,37.35,50.27c1.12,39.59-34.26,44.65-39.32,45.77,0,0,43.53,9,51.11-38.75,0,0,3.65-27.24-14.6-44.09S176.58,392.21,176.58,392.21Z"/><path class="cls-65" d="M68.11,419.64s1-6.72-7.16-4.9c0,0-2.18,0-2.18,8.9s.85,12,1.76,12.24,6.74.7,7-.43a38.34,38.34,0,0,0,.61-4.35L64,430.48V419.94Z"/><path class="cls-65" d="M77.59,436.58c-.49-.07-4.42,0-4.42,0V418.3s1.33-2.29,5-1.94a4.84,4.84,0,0,1,4.28,3.83l-.56,16.74Z"/><polygon class="cls-65" points="87.56 417.55 92.14 417.55 93.39 420.19 93.67 417.9 96.53 417.46 96.53 438.33 87.49 438.33 87.56 417.55"/><path class="cls-65" d="M102.53,438.33V421.62a4,4,0,0,1,3.63-3.32c3.16-.19,4.92,1.57,5.2,4.59s-.51,16.29-.51,16.29-2.53.39-2.42,0,0-9.93,0-9.93-1.74-.37-1.74,0v9.08Z"/><polygon class="cls-65" points="116.97 419.66 121.4 419.85 121.29 433.91 125.61 433.91 125.61 441.27 116.97 441.27 116.97 419.66"/><path class="cls-65" d="M147.51,426.33V422s-.84-2.38-4.56-2.38-3.3,5.69-3.3,5.69v13.43s1.12,3.27,4,3.27,3.19-4.21,3.19-5.19-3.19-.38-3.19-.38V427Z"/><polygon class="cls-65" points="153.59 422.04 157.13 422.33 157.38 443.46 153.37 443.22 153.59 422.04"/><path class="cls-65" d="M166.12,424.92l-3.37-.44a12.72,12.72,0,0,1,.24-2.29l8.18.21-.14,2.08-1.44.06-.31,18.92h-3.37Z"/><path class="cls-65" d="M177.49,425l6.32-.21s1.16,10.46-1.4,11.13l.1,8.95h-4.88l.11-10.29a12.89,12.89,0,0,1-1.27-6.46C176.75,424.57,177.49,425,177.49,425Z"/><path class="cls-66" d="M176.58,392.21s36.13,7.23,37.35,50.27c1.12,39.59-34.26,44.65-39.32,45.77,0,0,43.53,9,51.11-38.75,0,0,3.65-27.24-14.6-44.09S176.58,392.21,176.58,392.21Z"/><path class="cls-63" d="M283.61,367.05h3.26v3.41s-2,1.18-2,2,.37,16.53.37,16.53,2.37,1.79,3.21,1.37,1.93-4.59,1.75-11.63l-.17-7-1.32-1.17.27-3.79s4,1.26,4.31,1.92,1.59,1.28.74,19c0,0,1.45,6.14-5.07,6.54s-7.24-2.32-7.24-2.32-1.38,1.34-1.38-10.54V370.54S280,368.36,283.61,367.05Z"/><path class="cls-63" d="M296.77,367.53c.21-.1,9,0,10.11,1.14s1.75,4.07,1.72,10.75.64,9-2.49,10.49-3.76,1.18-3.76,1.18v-3.66s1.67-.84,1.62-6.1.07-8.53.07-8.53-1.2-1.5-2.08-1.43a6.61,6.61,0,0,0-1.33.2v24.18h-4.28Z"/><path class="cls-63" d="M315.3,368.79l5.27.22s3.21,1.05,3.39,3.47.19,24.12.19,24.12l-2.88.17-.49-1-2.32.53-.21-4.15s2-.38,1.9-2.06-.42-16.19-.42-16.19-.33-1.84-1.48-1.36a23.13,23.13,0,0,0-2.95,1.7l-.73,16.87,2.07,1-.28,4.15s-6.12-1.37-6.06-6,.16-16.75.16-16.75S312.36,368.9,315.3,368.79Z"/><path class="cls-67" d="M48.43,441.91S67.06,463.26,92.61,445c0,0,21.35-12.11,41.28,6.44,0,0,24.43,14.34,39.6,3.39s26.83-3.39,26.83-3.39l-3.38,8.73s-5.06-3.09-9.41.28c-3.39,2.62-20.5,8.7-29.21,8.7s-26.34-8.42-33.95-15.72-27.43-5.73-32.88-2c-7,4.8-14.88,8.17-24.71,5.64s-21.06-13.2-21.06-13.2Z"/><line class="cls-22" x1="63.61" y1="432.06" x2="63.61" y2="418.3"/><path class="cls-68" d="M73.17,436.72V418.86s.42-2.53,4.21-2.38,4.49,1.26,4.49,4.07v16.17h-3v-9.15h-1.4v9.15Z"/><polyline class="cls-22" points="121.89 433.68 125.89 433.68 125.89 441.12 116.69 441.12 116.69 419.85 121.4 419.85 121.4 437.4 122.66 437.4"/><line class="cls-22" x1="143.3" y1="423.64" x2="143.3" y2="438.01"/><path class="cls-22" d="M143.3,436.48H147c0,2.39-.56,5.13-3.65,5.06a3.56,3.56,0,0,1-3.44-3.16V421.81s.63-2,3.55-2,3.4,1.33,4,2.45v4.85H143.3"/><rect class="cls-22" x="153.59" y="422.16" width="3.79" height="21.06"/><polygon class="cls-22" points="164.29 424.55 162.89 424.55 162.89 422.16 170.75 422.16 170.75 424.55 169.42 424.55 169.42 443.71 165.91 443.71 165.94 424.6 164.29 424.55"/><path class="cls-22" d="M180.79,424.48h3v9.9s-.7,1.26-1.48,1.47v9.27h-4.35v-9.9a3.16,3.16,0,0,1-1.12-2.32c-.07-1.54,0-7.86,0-7.86h3.09v6.5s.14,2.14.91,2.24"/><path class="cls-22" d="M176.58,392.21s36.13,7.23,37.35,50.27c1.12,39.59-34.26,44.65-39.32,45.77,0,0,43.53,9,51.11-38.75,0,0,3.65-27.24-14.6-44.09S176.58,392.21,176.58,392.21Z"/><path class="cls-22" d="M188.93,394.74s22.19,10.67,26.68,30.89c3.82,17.17,6.46,48.58-26.68,60.65"/><path class="cls-22" d="M48.43,441.91S67.06,463.26,92.61,445c0,0,21.35-12.11,41.28,6.44,0,0,24.43,14.34,39.6,3.39s26.83-3.39,26.83-3.39l-3.38,8.73s-5.06-3.09-9.41.28c-3.39,2.62-20.5,8.7-29.21,8.7s-26.34-8.42-33.95-15.72-27.43-5.73-32.88-2c-7,4.8-14.88,8.17-24.71,5.64s-21.06-13.2-21.06-13.2Z"/><path class="cls-22" d="M225.72,449.5l42.13,3.08v16.57s-42.41,37.91-107,36S58.83,477,42.58,465.78s-16.24-14.34-16.24-14.34V433.49l187.49,14.65"/><polyline class="cls-22" points="225.74 449.26 267.85 452.58 382.07 458.2 382.98 434.87 223.56 426.08"/><path class="cls-22" d="M72.62,483.9c-21.27-7.29-40.1-23.29-46.6-29.22a7.41,7.41,0,0,1-2.42-5.5V434.4l2.74-.91,187.47,14.82"/><path class="cls-22" d="M129.56,441.56s-3.81-4.63-1.7-19.58,21.27-26.75,36.22-23.59,27,17.66,27.87,28.62a41.73,41.73,0,0,1-3,19.19"/><path class="cls-22" d="M124.06,433.49c-.21-23.24,16.76-29.88,16.76-29.88"/><path class="cls-22" d="M23.6,438.78s-100.32-3.93-111,12.66l16.86,16.86s9-8.69,41.27-11.5A524.85,524.85,0,0,1,26,454.68"/><path class="cls-22" d="M23.6,434.4s-86.84.73-106.5,10.72c0,0-2.81.12-4.49,6.32"/><path class="cls-22" d="M188.93,543s-168.07-12.57-199.8-2.74l4.25,23.3s56.55-2.17,98.46-1.18c50.07,1.17,94.85,5.89,94.85,5.89Z"/><line class="cls-22" x1="180.25" y1="504.51" x2="157.38" y2="540.94"/><polyline class="cls-22" points="171.38 505.17 168.81 511.42 152.65 540.3"/><path class="cls-22" d="M228.86,492.29s-26.33,41-43,50.5"/><line class="cls-22" x1="220.73" y1="495.46" x2="205.22" y2="515.35"/><path class="cls-22" d="M172.78,541.91c5.31.34,30-22.84,30-22.84"/><path class="cls-22" d="M116.36,499.47s2.33,15-3.62,38.63"/><path class="cls-22" d="M108.63,497.52s3.43,10,2.8,20.19a116.23,116.23,0,0,1-2.69,20.11"/><path class="cls-22" d="M44.33,469.15s14.9,59.59,20,67.31"/><path class="cls-22" d="M38.23,464.77s16.47,67.1,20.82,71.69"/><path class="cls-22" d="M-35.62,457.46S12,531.6,16.65,536.74"/><path class="cls-22" d="M5.86,512.78C14.3,525,21,533.93,24.51,536.46"/><path class="cls-22" d="M-14.2,482.73c5.25,8.08,11.12,17,16.74,25.22"/><path class="cls-22" d="M47.44,481.49c7.48.26,14.93.65,22,1.24"/><path class="cls-22" d="M41.4,477.42c-27.55.09-46.92.88-60.54,1.93l2.16,3c3.08-.29,4.36-.53,8.22-.68,11.41-.46,31.05-.88,51.16-.36"/><path class="cls-22" d="M57.94,477.45c-4,0-7.81,0-11.51,0"/><line class="cls-22" x1="181.63" y1="568.28" x2="181.63" y2="698.4"/><path class="cls-22" d="M48.64,507.35c-18.08.07-31.55.34-39.56.6-4,.13-5.37.33-8.65.58l3.3,4.25c8.93-.68,19-1,36.51-1.12l9.69,0"/><path class="cls-22" d="M-.06,512.94C-14.2,514-19.24,516-20.42,517a1.21,1.21,0,0,1-1.53.11L-27.58,513s7.33-2.94,24.66-4.43"/><path class="cls-22" d="M111,512.2c-17.64-.38-36-.58-55.29-.58"/><path class="cls-22" d="M166.6,514.28c-13-.84-28.79-1.45-49.39-1.93"/><path class="cls-22" d="M176.49,511.19c1.78.19,2.2.25,3.76.47,0,0,21.18,3.09,27.09,5.09a5.58,5.58,0,0,1-4.58,1.9s-10.86-2-22.51-3.3c-1.87-.2-4-.4-6.44-.59"/><path class="cls-22" d="M117.21,508c20.06.46,37.85,1.18,52,2.44"/><path class="cls-22" d="M55,507.41c17.53-.05,36.39,0,55.51.42"/><polyline class="cls-22" points="-13.82 478.28 20.86 463.44 23.6 467.41 0.43 478.23"/><polyline class="cls-22" points="53.9 503.38 60.98 497.48 62.88 497.48 63.2 499.8 57.48 506.92"/><polyline class="cls-22" points="2.75 506.92 19.11 499.99 22.13 499.27 23.04 501.52 11.63 507.62"/><line class="cls-22" x1="162.89" y1="505.4" x2="168.81" y2="509.93"/><line class="cls-22" x1="159.65" y1="509.69" x2="155.48" y2="505.17"/><path class="cls-22" d="M205.22,515.35c-.31-.06-25-10.84-25-10.84"/><line class="cls-22" x1="192.76" y1="513.66" x2="179.08" y2="506.37"/><path class="cls-22" d="M187.14,291.6c-8-5.79-45.91-19-129.63-17.06-32.57.74-42.75,10.68-42.75,10.68a3.27,3.27,0,0,1,0-2.88s8.63-9.06,33.34-10.88,59.4-.85,79.33,1.54S175,279.88,184,286.2c0,0,2.23,1.33,3.12,5.4v43s-.73.84-.94.84"/><path class="cls-22" d="M14.76,288.62S24.94,278.69,57.51,278c83.72-1.9,121.63,11.27,129.63,17.06"/><path class="cls-22" d="M14.76,292s10.18-9.93,42.75-10.67c83.72-1.89,121.63,11.27,129.63,17.06"/><path class="cls-22" d="M14.76,295.43s10.18-9.94,42.75-10.68c83.72-1.89,121.63,11.27,129.63,17.06"/><path class="cls-22" d="M14.76,298.83s10.18-9.94,42.75-10.67c83.72-1.9,121.63,11.27,129.63,17.06"/><path class="cls-22" d="M14.76,302.23s10.18-9.93,42.75-10.67c83.72-1.89,121.63,11.27,129.63,17.06"/><path class="cls-22" d="M14.07,306.08S24.94,295.7,57.51,295c83.72-1.89,121.63,11.27,129.63,17.06"/><path class="cls-22" d="M13.92,309.56s11-10.46,43.59-11.19c83.72-1.9,121.63,11.27,129.63,17.06"/><path class="cls-22" d="M13.92,313s11-10.47,43.59-11.21c83.72-1.89,121.63,11.27,129.63,17.06"/><path class="cls-22" d="M14.07,316.46s10.87-10.55,43.44-11.29c83.72-1.89,121.63,11.27,129.63,17.06"/><path class="cls-22" d="M13.92,320.09s11-10.78,43.59-11.51c83.72-1.9,121.63,11.27,129.63,17.06"/><path class="cls-22" d="M13.92,323.3s11-10.58,43.59-11.32c83.72-1.9,121.63,11.27,129.63,17.06"/><path class="cls-22" d="M13.92,326.72s11-10.6,43.59-11.34c83.72-1.89,121.63,11.27,129.63,17.06"/><path class="cls-22" d="M14.76,285.22s-1.44,43-1.28,43.21"/><path class="cls-22" d="M191.15,399.33,184,406l8.09,9.37s1.71,1.47,1,3.21a8.85,8.85,0,0,1-2.31,3"/><path class="cls-22" d="M4.89,454.82s.74,1.25,0,2.11-6.42,3.52-7.55,4.64-3.65,4,1.13,6.31,6.42,2.39,6.42,2.39"/><path class="cls-22" d="M6.12,481.49l-9.2,9.5s-3.44,2.26.28,6.11,7.69,8.42,7.69,8.42"/><path class="cls-22" d="M1.14,515.21l-7.76,7.58s-2.53,2.74.79,5.34,10.72,9.19,10.72,9.19"/><path class="cls-22" d="M177.47,515.07s9.67,6.84,11.46,8.32,1.79,2.73,0,4.84-10.3,11-10.3,11"/><path class="cls-22" d="M.44,341S12,325.72,104.69,330.15s92.38,18,92.38,18"/><path class="cls-22" d="M11.63,354.15s2.7-8.42,39.56-9.89,85.51-1.05,113.1,6.32,21,7.89,21,7.89"/><path class="cls-22" d="M-.89,365.53s2.59-8.63,46.61-9.9,94.35,1.9,122.15,6.11S196.77,372,196.77,372"/><path class="cls-22" d="M10.26,378.1s1.33-9,59.15-10,90.24,6.11,90.24,6.11,19.52,3,24.65,8.31"/><path class="cls-22" d="M-1.25,392.42s-2.51-6.67,15.7-8.36,62.65-7.37,129.83,0c0,0,45.92,4,51.29,10L184.3,382.48a94.29,94.29,0,0,1,8.85-6.52c6.63-4.53,2.52-7.17,2.52-7.17l-10.42-10.32s4.11-3.68,9.37-7.58,1.26-6.53,1.26-6.53l-12.14-10.08s-25.55-12.64-77.05-13.86S23.5,320.2,9.92,330.76.62,344.85.62,344.85l11,9.3L1.28,362.3s-6,3.23,1.89,8.78l7.09,7L.15,387.43s-3.37,2.95-1.4,5,10.6,9.48,10.6,9.48l-9.9,9.76s-2.42,2.73-1.32,4.7,10.1,10,10.1,10L3.1,434.87"/><path class="cls-22" d="M176.21,403.31c2.59.82,5.18,1.7,7.77,2.66"/><path class="cls-22" d="M9.35,401.9s12.13-9.5,68.17-8.57c31.57.53,54.84,1,75.85,4.54"/><path class="cls-22" d="M-1.87,416.36s-3.8-6.6,22.73-8.71,58.78-4.8,113.75,0"/><path class="cls-22" d="M187.77,414.46s5.17,1.51,5.27,4.09"/><path class="cls-22" d="M121.4,420.74l4.51.17"/><path class="cls-22" d="M110.37,420.39l6.32.2"/><path class="cls-22" d="M96.53,420l6.57.16"/><path class="cls-22" d="M82.1,419.75l5.39.09"/><path class="cls-22" d="M68.11,419.6l5.06,0"/><path class="cls-22" d="M8.23,426.33s1.19-5.5,33.06-6.48c5.45-.17,11.5-.25,17.79-.27"/><path class="cls-22" d="M-4,465.81s-1.55-5.39,37.68-4.6"/><path class="cls-22" d="M49.93,488c17.26-.1,31.43.1,31.43.1"/><path class="cls-22" d="M-3.88,495.72s-4.88-5.35,16.77-6.8c8.14-.54,19.81-.79,31.23-.89"/><path class="cls-22" d="M117.22,505.08c13.5.47,27.28,1.34,40.71,2.75"/><path class="cls-22" d="M59.83,505.1c15.41-.5,32-.71,50.64-.23"/><path class="cls-22" d="M9.08,508s15.6-1.47,39-2.46"/><path class="cls-22" d="M168.81,523.47c19.8,1.68,22.84,1.79,20.12,4.76"/><path class="cls-22" d="M116,520.48c18.72.58,34,1.33,43.63,2.19l2.68.24"/><path class="cls-22" d="M57.94,519.23c16.9.23,35.9.62,53.31,1.14"/><path class="cls-22" d="M10.86,519.31c2-.12,3.38-.2,5.79-.24,8-.12,20.73-.08,35.54.09"/><path class="cls-22" d="M-7.18,526.58s-2.69-5,12.07-6.79"/><line class="cls-22" x1="186.93" y1="335.41" x2="218.63" y2="335.41"/><polygon class="cls-22" points="218.63 335.41 383.75 345.31 383.75 368.69 218.63 357.32 218.63 335.41"/><path class="cls-22" d="M288.63,370.51a2.16,2.16,0,0,1,1.4,1.2c.42,1,0,16.29,0,16.29s-.28,1.82-1.76,1.82v4.28s5.48.21,5.83-4.21.42-17.69.42-17.69-.56-5.55-5.89-5.34v3.65"/><path class="cls-22" d="M286.87,366.86v3.8s-1.47.07-1.61.91,0,16,0,16-.28,2.11,1.61,1.83v4.71s-6.53-.15-6.53-6.18V371.08S281,365.94,286.87,366.86Z"/><polygon class="cls-22" points="296.98 367.43 300.63 367.43 300.63 395.23 296.35 395.23 296.35 367.43 296.98 367.43"/><path class="cls-22" d="M302,367.78v3.79a2.3,2.3,0,0,1,1.9,1.47c.42,1.34,0,11.73,0,11.73a5.29,5.29,0,0,1-1.61,1.89v4.43s6.24-.5,6.31-5,0-13.76,0-13.76S308.42,367.36,302,367.78Z"/><path class="cls-22" d="M317,368.69v4.77s-1.41-.63-1.83,1.2-.49,14.95-.49,14.95a2.65,2.65,0,0,0,2,2v4.63s-6-1-6.25-5.19,0-17.35,0-17.35S311.86,368.27,317,368.69Z"/><path class="cls-22" d="M318.25,368.69v4.56a2,2,0,0,1,1.48.63c.42.64,0,17.21,0,17.21a3.83,3.83,0,0,1-1.48,1v4.21a6.51,6.51,0,0,0,2.53-.56v1h3.51V373.32A6.54,6.54,0,0,0,318.25,368.69Z"/><polyline class="cls-22" points="281.95 392.13 216.58 388.42 217.16 365.11 280.34 369.44"/><line class="cls-22" x1="296.36" y1="392.95" x2="292.69" y2="392.74"/><line class="cls-22" x1="311.59" y1="393.82" x2="300.63" y2="393.19"/><line class="cls-22" x1="318.25" y1="394.19" x2="316.64" y2="394.1"/><polyline class="cls-22" points="324.64 372.48 382.98 376.48 382.98 397.87 324.64 394.56"/><line class="cls-22" x1="308.38" y1="371.37" x2="311.41" y2="371.57"/><line class="cls-22" x1="294.03" y1="370.38" x2="296.35" y2="370.54"/><line class="cls-22" x1="286.87" y1="369.89" x2="288.27" y2="369.99"/><polyline class="cls-22" points="216.58 411.58 216.58 396.28 382.98 405.55 382.98 428.5 221.24 419.72"/><path class="cls-22" d="M267.85,458.7s482.45,31.62,582.42,50.05L853,699.66"/><line class="cls-22" x1="381.44" y1="405.46" x2="381.44" y2="397.78"/><polyline class="cls-22" points="381.44 434.78 381.44 428.42 382.98 428.5"/><line class="cls-22" x1="380.59" y1="458.2" x2="380.59" y2="466.44"/><line class="cls-22" x1="219.41" y1="357.37" x2="219.41" y2="364.72"/><line class="cls-22" x1="218.36" y1="388.52" x2="218.36" y2="395.89"/><polygon class="cls-69" points="338.69 365.58 338.69 373.46 356.59 374.67 356.59 366.81 338.69 365.58"/><polygon class="cls-69" points="338.69 394.91 338.69 402.79 356.59 404 356.59 396.14 338.69 394.91"/><polygon class="cls-69" points="337.63 426.3 337.63 432.41 355.54 433.35 355.54 427.24 337.63 426.3"/><polygon class="cls-69" points="337.63 456.52 337.63 463.45 355.54 464.52 355.54 457.6 337.63 456.52"/><polygon class="cls-70" points="338.8 491.16 338.98 509.28 354.19 509.28 354.38 491.64 338.8 491.16"/><polygon class="cls-22" points="300.14 471.96 335.8 473.08 335.8 506.78 300.14 505.8 300.14 471.96"/><polygon class="cls-22" points="337.63 484.88 355.54 485.21 355.54 490.5 337.63 490.07 337.63 484.88"/><polygon class="cls-70" points="338.8 536.73 338.98 554.84 354.19 554.84 354.38 537.21 338.8 536.73"/><polygon class="cls-22" points="337.63 530.44 355.54 530.78 355.54 536.06 337.63 535.64 337.63 530.44"/><polyline class="cls-71" points="304.04 505.91 304.04 509.28 307.41 509.28 307.41 506"/><polyline class="cls-71" points="327.8 506.78 327.8 509.28 330.96 509.28 330.96 507.2"/><path class="cls-22" d="M305.05,516.26v-2h7.87s.21-1.12,1.89-1.33.35-1.47,5.76-.56c0,0,.77.58,0,1.8h1.75v2.62h1.13v-1.68s3.09-.07,3.3.42a16.7,16.7,0,0,1,3.51-.14c.77.21,2-.07,2.74.35s7.51,0,7.51,0l1.12,1.12h5l1.57,1.2,3.44-2.67h3.94v1.54h8.77v1.41a4.18,4.18,0,0,1,1.61-.85c.91-.21,6.74,0,6.74,0s1.9,1.06,2,1.83,1.05-1.33,1.05-1.33h3.79v2.1a9.86,9.86,0,0,1,6.39-1.75c4.14.14,6.39,2,6,6.67s-5.06,5-7.23,5-2.81-.77-4.36-1.33H340.86a7.94,7.94,0,0,0-1.34-.63c-.49-.15-6.45,0-6.45,0s-.64-.85-.92-.57a5.13,5.13,0,0,1-1.19.64L316,527.49s-1.27-1.19-1.13-1.82a.68.68,0,0,0-.84-.77c-.21.14-.07,2.17-1,2.17H301.61s-.49-5.65,0-6.09a8.09,8.09,0,0,0,1.69-1.84C303.37,518.79,303.86,516.33,305.05,516.26Z"/><rect class="cls-22" x="300.14" y="536.69" width="34.96" height="13.34"/><polygon class="cls-22" points="357.43 538.94 391.95 539.64 391.95 552.56 357.43 552.56 357.43 538.94"/><polygon class="cls-72" points="525.34 545.22 525.51 563.33 539.68 563.33 539.86 545.7 525.34 545.22"/><polygon class="cls-73" points="524.26 538.94 540.94 539.27 540.94 544.55 524.26 544.13 524.26 538.94"/><polygon class="cls-72" points="637.45 554.28 636.39 570.14 651.02 570.35 651.97 554.76 637.45 554.28"/><polygon class="cls-73" points="636.36 548.66 653.05 548.99 653.05 554.28 636.36 553.86 636.36 548.66"/><polygon class="cls-72" points="738.35 560.06 738.31 577.45 752.12 576.46 751.92 560.51 738.35 560.06"/><polygon class="cls-74" points="737.58 554.41 753.1 555.19 753.1 559.58 737.58 559.61 737.58 554.41"/><polygon class="cls-74" points="787.77 547.05 810.66 549.19 810.66 572.08 787.77 570.8 787.77 547.05"/><path class="cls-74" d="M787.77,584.73c1.07.4,22.89,1.26,22.89,1.26l1.07,22.68h-24Z"/><polygon class="cls-74" points="789.48 622.15 811.73 624.08 811.73 649.11 789.48 648.25 789.48 622.15"/><path class="cls-22" d="M497,576.15c1.13,0,56.73,3.09,56.73,3.09l7,48.86H515.25Z"/><polygon class="cls-22" points="564.95 577.45 719.12 584.29 724.46 597.21 718.27 597 571.41 592.15 564.95 577.45"/><path class="cls-22" d="M567.2,582.57V604s130.57,4.17,151.07,4.45V597"/><path class="cls-68" d="M63.61,430.52h4.52c0,4.63-1.56,5.05-1.56,5.05-3.23,1.26-7.3.56-7.3-2.67s-.43-13.9,0-15.58,3.37-3.65,6.31-2.53,2.53,5.06,2.53,5.06h-4.5"/><polyline class="cls-22" points="-27.86 461.36 -2.66 461.57 4.89 456.93 -28.39 456.93"/><path class="cls-22" d="M77.52,425.18h1.26V419.7s-.61-1.4-1.26,0Z"/><path class="cls-22" d="M107.16,427h1.27v-5.48s-.62-1.4-1.27,0Z"/><polyline class="cls-22" points="91.84 426.04 93.39 429.39 93.39 438.1 96.19 438.1 96.19 417.46 93.81 417.46 93.81 425.31 92.12 417.46 87.49 417.46 87.49 438.1 93.39 438.1"/><path class="cls-22" d="M102.53,437.62V422.41s-.22-4.11,4.47-4.11c3.64,0,3.85,3.84,3.85,3.84v16.64h-2.32v-9.53H107v9.53h-4.42Z"/><g class="cls-75"><path class="cls-1" d="M849.52,509.31S785,497.5,622.12,485.44C586.92,482.84,379.85,467,379.85,467l-.21-7.74,2-.85.57-23-1.55-.08V429l1.55.09v-23l-1.55-.08.28-7.68,1.27.09V377.05l-1.55-.11v-7.71l2.32-.47V345.88L219.64,336H186.19V290.35s-1.64-5.67-16.37-9.07-59.68-13.3-113-9.8c0,0-36.14,1.52-43.06,12l-.53,45.23S3,335.7,1.81,338.22s-4.06,3.76-.95,8l10,7.78L-1.44,365.08s-.63,2.56,2.32,5.51,8.29,8,8.29,8L-1.64,389.15s-4.57,1,5.3,9l4.94,4L-2.31,413.72s-1.94,2.33,3.93,7.75c5,4.59,5.72,4.57,5.84,4.45l-5.11,9.51S-82.11,438-85.44,446.7a45.36,45.36,0,0,1-2.39,5.61l16.54,16.35s.43-.26,1.33-.71l38.53,46.35S-8.58,538-8.29,538.67a7.71,7.71,0,0,0,2.55,1.09l-5.88,1.08,4.57,23,3.62.29V699.66l856.13.25ZM1.09,507.49l-15.65-24.82,19.5-1.06.18,1.06-9.29,9.77s-4.26,0,4.22,9.06l4.1,5.08Zm3.38-52.34a10,10,0,0,1-6.46,6C-7.26,463-6.42,467,3.06,470.56l.12.69L-12.53,478l-4.74,1.43-13.14-22.29A309.84,309.84,0,0,1,4.47,455.15Zm-66,9.23c3.41-1.25,7.76-2.67,13.23-4.14A105.6,105.6,0,0,1-36,457.87l14.27,22.28s-24.58,3.33-25.55,3.59C-48.09,483.94-57.48,470.31-61.56,464.38Zm18,24.28c.33-1.87,19.43-4.63,23.84-5.24l16,25s.92,1.9-4.43,1.13c-3.16-.45-10.75,1.3-16.41,2.81Zm43,50.14a2.22,2.22,0,0,0-.31-.13c-4.5-1.68-19.55-21.61-19.55-21.61.82-1.95,20.16-3.33,20.16-3.33L1,514.1c-1.34,2.6-2.93,5-4.44,5.46,0,0-11.07,4.86-.68,11.1l8.64,7.23Z"/></g><path class="cls-76" d="M44.49,470.38l2,7.94,11.51,0S45.16,471.74,44.49,470.38Z"/><path class="cls-77" d="M12.28,507.35l10.53-5.71-.65-2.28L5,506.43-4.33,496s-.94-4,5.13-5.48c13.43-3.29,43.32-2.5,43.32-2.5l4.77,19.06Z"/><path class="cls-77" d="M186.08,358c14.61-10.15,10.82-12.22,10.82-12.22-17.69-13.22-94.24-15.62-94.24-15.62C3,327.5.3,341.89.3,341.89s-1,1.83,3.2,5.37l8.26,7S13,351,20,348.25c9.16-3.59,59.82-5.48,82.59-4.35,24.75,1.23,46.13,1.73,67.13,7.33C180.67,354.16,186.08,358,186.08,358Z"/><path class="cls-77" d="M184.55,382.48c17.4-11.84,11.78-11.6,11.78-11.6-17.69-13.22-93.1-14.62-93.1-14.62C.93,352.15-1,366-1,366s.31,1.68,4.5,5.22a41.56,41.56,0,0,1,6.23,6.32S10.64,376,20,373s59.83-6.28,82.6-5.15a467,467,0,0,1,67.21,8.25C181.17,378.33,184.55,382.48,184.55,382.48Z"/><path class="cls-77" d="M195,395s2-2-7-4a334.83,334.83,0,0,0-67-9c-13.11-.45-24.29-1.74-35-2-33.83-.83-57.58,1.13-81.9,6.32,0,0-5.78,2.3-5.5,3.4s-3.13,1.94,2.69,5.07l7.92,7.46s12.91-5.47,22.44-6.93,47.26-1.87,47.26-1.87,57.12.51,64.84,3.1L153.5,398s12.1-1.7,20,4l11,3.78L191,399s-9-6-14.29-6.7C176.71,392.3,184,391,195,395Z"/><path class="cls-77" d="M-1.87,413.48A29.18,29.18,0,0,1,8,409c5-1.27,11.61-1.19,18.47-1.68,15.29-1.1,84.27-3.42,107.15,0,0,0-3.14,3.7-3.92,6.16A58.26,58.26,0,0,1,126,421l-4.51-.32-.11-.83-4.28-.09-.32.92h-6s-1-2.3-2.94-2.3-5.42,1.3-5.26,2.11l-6.08-.55-.26-2.59-2.38.2-.35,2.16L92,417.65l-4.35-.1.06,2.14H82a4.72,4.72,0,0,0-4.32-3.23s-4.35-.22-4.35,2.72v.55l-5.06.21s0-5.36-4.14-5.38a4.86,4.86,0,0,0-5.2,4.62c.14,1.11,0,.67,0,.67s-28.76,0-34.76,1.34S11.81,423,9.22,425.41l-.86,1-10.1-10S-2.76,415.49-1.87,413.48Z"/><path class="cls-77" d="M187.42,414.92s5.75.08,5.75,1.9-2,4.58-2,4.58S188.43,415.14,187.42,414.92Z"/><path class="cls-77" d="M-3.31,464.87s-2.93,2.41,7.41,5.32L21,463.53,23.41,467,1.88,478.38l39.65-.86-3.17-12.65-5.27-4.13S-1.8,461.07-3.31,464.87Z"/><path class="cls-77" d="M50.06,488.09l31.43.1s22.26,9.12,27.27,9.43L110.6,505l-51.32,0L63,500.31l-.46-2.69-1.38,0-7.53,6.24Z"/><path class="cls-77" d="M116.49,499.56s.71,5.21.86,5.62,40.16,2.75,40.16,2.75l-1.9-2.66S117.13,501.2,116.49,499.56Z"/><path class="cls-77" d="M164.25,505.5l7.26-.8s-1.45,5.4-2.16,5.24S164.25,505.5,164.25,505.5Z"/><path class="cls-77" d="M-6.78,524.3a21.21,21.21,0,0,1,11.19-4.42l12.37,17-11.88.81L-6.49,527.47S-7.49,527.35-6.78,524.3Z"/><path class="cls-77" d="M11,519.41H52.87s3.78,15.93,6.31,17.14H24.64Z"/><path class="cls-77" d="M58.46,519.1l52.92,1.36s-1.82,17-2.51,17.46-44.45-1.37-44.45-1.37S58.28,521.83,58.46,519.1Z"/><path class="cls-77" d="M116.15,520.57,162.46,523l-10.41,18-39.84-2.5S115.85,528.22,116.15,520.57Z"/><path class="cls-77" d="M168.94,523.56,158.06,541l15.28,1s5.27-2.54,6.09-3.4,10.42-10.77,10.43-11.37,0-1.85,0-1.85Z"/><polyline class="cls-22" points="383.75 368.69 381.44 368.67 381.44 376.38"/></g><g class="cls-78"><g class="cls-79"><path class="cls-53" d="M850.21,508.12s-64.43-11.8-227.06-23.83c-35.15-2.6-241.91-18.42-241.91-18.42l-.21-7.73,2-.84.56-22.95-1.54-.08v-6.36l1.54.09V405.07l-1.54-.08.28-7.67,1.26.09V376.05l-1.54-.1v-7.7l2.31-.47V344.93L221.27,335H187.86V289.49s-1.63-5.67-16.34-9.06-59.6-13.28-112.88-9.79c0,0-36.09,1.52-43,12l-.53,45.16s-10.18,6.93-11.36,9.44-4,3.76-.94,8l10,7.76L.52,364.11s-.63,2.55,2.31,5.49,8.27,8,8.27,8L.32,388.14s-4.57,1,5.28,9l4.94,4L-.35,412.67s-1.94,2.33,3.91,7.74c5,4.58,5.72,4.56,5.84,4.44l-5.1,9.5S-80,436.92-83.36,445.6a46.18,46.18,0,0,1-2.39,5.61l16.52,16.32s.43-.26,1.32-.71l38.48,46.28s22.81,23.7,23.11,24.33a7.61,7.61,0,0,0,2.54,1.09l-5.87,1.08,4.56,23,3.62.29V698.19l854.86.25ZM3,506.3l-15.63-24.78,19.47-1.06.18,1.06-9.28,9.75s-4.25,0,4.22,9.05l4.09,5.07ZM6.42,454A10,10,0,0,1,0,460c-5.27,1.84-4.43,5.83,5,9.41l.12.69-15.68,6.71-4.73,1.43L-28.41,456A308.66,308.66,0,0,1,6.42,454Zm-65.94,9.22c3.4-1.25,7.75-2.67,13.21-4.14A107.49,107.49,0,0,1-34,456.76L-19.8,479s-24.54,3.33-25.51,3.58C-46.07,482.79-55.45,469.18-59.52,463.26Zm18,24.24c.33-1.87,19.4-4.62,23.81-5.23l16,24.94s.93,1.89-4.41,1.13c-3.16-.45-10.74,1.3-16.39,2.8Zm43,50.06-.32-.13c-4.49-1.67-19.51-21.57-19.51-21.57.81-1.94,20.12-3.32,20.12-3.32l1.14.36c-1.34,2.6-2.93,5-4.43,5.46,0,0-11.06,4.85-.69,11.08l8.64,7.21Z"/></g></g></g></g></svg>