<svg xmlns="http://www.w3.org/2000/svg" viewBox="0 0 97.79 46.75"><defs><style>.cls-1{fill:#f64848;}</style></defs><g id="レイヤー_2" data-name="レイヤー 2"><g id="レイヤー_1-2" data-name="レイヤー 1"><path class="cls-1" d="M43.65,31.61C45.88,33,48.9,33.48,53,33.09A14.64,14.64,0,0,0,51.3,37c-5.18.17-8.58-1-11.31-3.65-1.29,2.58-4,5.05-8.93,7.32a15.42,15.42,0,0,0-3-2.73c4-1.58,6.28-3.2,7.56-4.82l-7.52,1.4-.63-3.41,9.51-1.76a7.5,7.5,0,0,0-.06-1.26L30.25,29.3l-.59-3.16,6.66-1.24-.22-1.17L29,25.05l-.37-2-2.51.47L25,17.31l9.7-1.8-.4-2.18,4.09-.76.4,2.18,9.76-1.81,1.15,6.18-2.26.42.37,2L40.11,23l.21,1.17,7-1.31L47.94,26l-7.06,1.31A8.54,8.54,0,0,1,41,28.57l10.36-1.92L52,30.06Zm-8.14-11-.21-1.15,4-.74.21,1.15,5.83-1.09-.3-1.61L29.54,20l.3,1.61Z"/><path class="cls-1" d="M58.3,13.89a77.82,77.82,0,0,0,.63,10.54,3.89,3.89,0,0,0,.14.62c.18-.85.44-1.43.64-2.32L62,24c-.36,2.61-.67,5.51-.7,7.15a8.55,8.55,0,0,0,.07,1.31c.06.3.15.79.26,1.23l-3.69,1a32.58,32.58,0,0,1-2.74-8.54,87.71,87.71,0,0,1-1-11.51c0-.84-.11-2.12-.27-3.14L58.52,11A23.84,23.84,0,0,0,58.3,13.89ZM71.85,10c.06.52.21,1.43.39,2.58,1.36-.43,2.66-.86,3.84-1.37l.76,4.12c-1.2.39-2.5.8-3.9,1.15.52,2.5,1,4.41,1.4,6a17.45,17.45,0,0,1,5.88,2.54L78.63,29A36.19,36.19,0,0,0,75.25,27c.12,2.63-1.27,4.52-4.84,5.18-3.85.72-6.68-.45-7.26-3.53s1.58-5.48,5.4-6.19c.46-.08.93-.14,1.37-.19-.35-1.43-.74-3.08-1.09-4.79-.51.12-1,.22-1.52.31-1.63.3-3.28.55-4.91.74l-.75-3.92A47.85,47.85,0,0,0,66.57,14c.52-.1,1-.19,1.52-.31-.26-1.28-.45-2.29-.57-2.77A12.1,12.1,0,0,0,67,9l4.72-.88A16.18,16.18,0,0,0,71.85,10ZM69.3,28.37c1.31-.25,1.7-1.05,1.42-2.55l0-.19a7.34,7.34,0,0,0-1.87.09c-1.28.24-2,.89-1.87,1.76S68.13,28.59,69.3,28.37Z"/><rect class="cls-1" x="74.25" y="14.38" width="33.12" height="4" transform="translate(47.42 97.81) rotate(-72.17)"/><rect class="cls-1" x="11.81" y="17.82" width="4" height="33.12" transform="translate(-21.2 22.26) rotate(-49.02)"/></g></g></svg>