<svg xmlns="http://www.w3.org/2000/svg" viewBox="0 0 137.45 54.11"><defs><style>.cls-1{fill:#f64848;}</style></defs><g id="レイヤー_2" data-name="レイヤー 2"><g id="レイヤー_1-2" data-name="レイヤー 1"><path class="cls-1" d="M45.31,35.61c2.23,1.39,5.25,1.87,9.33,1.48A14.64,14.64,0,0,0,53,41c-5.18.17-8.58-1-11.31-3.65-1.29,2.58-4,5.05-8.93,7.32a15.42,15.42,0,0,0-3-2.73c4-1.58,6.28-3.2,7.56-4.82l-7.52,1.4-.63-3.41,9.51-1.76a6.57,6.57,0,0,0-.07-1.26L31.91,33.3l-.59-3.16L38,28.9l-.22-1.17-7.09,1.32-.37-2-2.51.47-1.15-6.19,9.7-1.8-.4-2.18L40,16.57l.4,2.18,9.76-1.81,1.15,6.18-2.26.42.37,2L41.76,27,42,28.16l7-1.31L49.6,30l-7.06,1.31a8.54,8.54,0,0,1,.12,1.24L53,30.65l.63,3.41Zm-8.14-11L37,23.42l4-.74.21,1.15L47,22.74l-.3-1.61L31.2,24l.3,1.61Z"/><path class="cls-1" d="M60,17.89a77.82,77.82,0,0,0,.63,10.54,3.89,3.89,0,0,0,.14.62c.18-.85.44-1.43.64-2.32L63.66,28c-.36,2.61-.67,5.51-.7,7.15A8.55,8.55,0,0,0,63,36.43c.06.3.15.79.26,1.23l-3.69,1a32.58,32.58,0,0,1-2.74-8.54,87.71,87.71,0,0,1-1-11.51c0-.84-.11-2.12-.27-3.14L60.18,15A23.84,23.84,0,0,0,60,17.89ZM73.51,14c.06.52.2,1.43.39,2.58,1.36-.43,2.66-.86,3.84-1.37l.76,4.12c-1.2.39-2.5.8-3.9,1.15.52,2.5,1,4.41,1.4,6a17.45,17.45,0,0,1,5.88,2.54L80.29,33A36.19,36.19,0,0,0,76.91,31c.12,2.63-1.27,4.52-4.84,5.18-3.85.72-6.69-.45-7.26-3.53s1.58-5.48,5.4-6.19c.46-.08.93-.14,1.37-.19-.35-1.43-.74-3.08-1.09-4.79-.51.12-1,.22-1.52.31-1.63.3-3.28.55-4.91.74l-.75-3.92A47.85,47.85,0,0,0,68.23,18c.52-.1,1-.19,1.52-.31-.26-1.28-.45-2.29-.57-2.77A12.1,12.1,0,0,0,68.61,13l4.72-.88A16.18,16.18,0,0,0,73.51,14ZM71,32.37c1.31-.25,1.7-1,1.42-2.55l0-.19a7.34,7.34,0,0,0-1.87.09c-1.28.24-2,.89-1.87,1.76S69.79,32.59,71,32.37Z"/><path class="cls-1" d="M87.23,25.36l-.87-4,.4-.05c.72-.11,1.56-.23,2.41-.42l7.77-1.7L95.58,13,88,14.66c-.81.18-1.83.44-2.37.6l-.39.11-.85-3.87.41-.05c.74-.08,1.77-.25,2.41-.39l9.32-2c.58-.13,1.44-.36,1.7-.43l.4-.12.1.55c.08.45.2,1.16.32,1.7l2.08,9.49c.13.58.39,1.6.61,2.33l.11.39-4,.87-.08-.37L97.73,23a.17.17,0,0,1,0-.07l-7.66,1.68a25.2,25.2,0,0,0-2.43.67Z"/><path class="cls-1" d="M109.83,30.22l-3-1.74.07-.27A2.42,2.42,0,0,0,107,27l-1.79-9.68a12.12,12.12,0,0,0-.65-2.2l-.18-.43,4.38-.81,0,.44a13.58,13.58,0,0,0,.22,2.3l1.59,8.56A21.72,21.72,0,0,0,118,17.86l.26-.45,2.59,2.83-.14.24c-1.89,3.27-5.1,6.22-9.54,8.77A4.4,4.4,0,0,0,110,30Z"/><rect class="cls-1" x="113.91" y="14.38" width="33.12" height="4" transform="translate(74.93 135.57) rotate(-72.17)"/><rect class="cls-1" x="13.47" y="27.82" width="4" height="33.12" transform="translate(-30.87 36.53) rotate(-61.17)"/></g></g></svg>